<?xml version="1.0" encoding="utf-8"?>
<!-- Generator: Adobe Illustrator 23.0.5, SVG Export Plug-In . SVG Version: 6.00 Build 0)  -->
<svg version="1.1" id="Layer_1" xmlns="http://www.w3.org/2000/svg" xmlns:xlink="http://www.w3.org/1999/xlink" x="0px" y="0px"
	 viewBox="0 0 892.7 489.6" style="enable-background:new 0 0 892.7 489.6;" xml:space="preserve">
<style type="text/css">
	.st0{fill:#231F20;}
	.st1{fill:#FFFFFF;}
	.st2{fill:#0D52A1;}
	.st3{fill:#CB121D;}
	.st4{fill:#0A4588;}
	.st5{fill:#E5010E;}
	.st6{fill:#FFBE01;}
	.st7{fill:#E5050F;}
	.st8{fill:none;stroke:#EC008C;stroke-width:0.5;stroke-miterlimit:10;}
	.st9{fill:#0950A0;}
	.st10{fill:#FFBE00;}
</style>
<g>
	<path class="st10" d="M254.2,291.1v0.2C253.9,291.2,254.1,291.1,254.2,291.1z"/>
	<path class="st10" d="M254.2,291C254.2,291,254.3,291,254.2,291C254.3,291,254.3,291,254.2,291c0,0.1,0,0.1,0,0.1
		C254.2,291,254.2,291,254.2,291L254.2,291z"/>
	<path class="st10" d="M257.1,288.5c-0.5,0.6-1,1.1-1.4,1.7c-0.1,0.1-0.2,0.2-0.3,0.3c-0.1,0.1-0.2,0.2-0.3,0.3
		c-0.2,0.2-0.5,0.2-0.8,0.2c0.4-0.3,0.7-0.8,1.3-0.8c0,0,0,0,0,0c0,0,0,0,0,0C255.8,289.3,256.5,288.9,257.1,288.5z"/>
	<path class="st10" d="M90.3,302.7C90.3,302.7,90.3,302.7,90.3,302.7c-0.7-0.7-1.4-1.5-2-2.3c0.3,0.3,0.7,0.7,1,1
		C89.7,301.8,90.4,302,90.3,302.7z"/>
	<polygon class="st10" points="90.3,302.7 90.3,302.7 90.3,302.7 	"/>
	<path class="st10" d="M69.8,227.3c1.4-5.7,2.7-11.4,4.7-17c4.4-12.6,10.4-24.5,17.4-35.8c10.4-16.8,22.6-32.2,35.9-46.7
		c8.1-8.8,16.9-17,25.7-25.2c0.3-0.3,0.6-0.5,1.1-0.6c-0.8,1.3-1.6,2.5-2.3,3.8c-3.3,5.4-6.2,10.9-7.8,17
		c-1.9,7.1-1.6,14.1,1.9,20.7c0.6,1.2,1.4,2.3,2.3,3.3c0.6-0.2,0.4-0.6,0.4-0.9c0.5-16.4,6.1-30.9,16.4-43.5
		c7.6-9.4,16.9-17,26.9-23.7c4.2-2.8,8.6-5.5,13.1-7.9c0.4-0.2,0.8-0.6,1.6-0.5c-0.2,0.9-0.5,1.8-0.6,2.8c-0.2,1.9,0.1,3.9,0.6,5.8
		c1.4,5.6,4,10.6,6.9,15.5c6.5,11.2,14.5,21.4,22.7,31.4c7.7,9.4,16.2,17.9,24.6,26.6c1.5,1.6,2.8,3.4,4.6,4.7c0.1,0,0.2,0,0.3,0.1
		c0.2,0.1,0.4,0.2,0.6,0.4c3.8,5.5,6.5,11.5,8.9,17.7c5.1,12.9,7.4,26.3,6.6,40.1c-0.8,15.7-4.3,30.8-10.4,45.3
		c-3.9,9.3-9,18-15.5,25.8c-8.8,10.6-19.2,19.2-31.9,24.7c-1.2,0.5-2.3,1.3-3.7,0.8c-0.1-3.5,0-7-0.3-10.5c-0.5-5.8-1.1-11.6-3-17.1
		c-1-2.9-2.8-5.3-4.2-8c-0.5-0.9-1.1-1.8-1.4-3.2c3.1,1.1,5.1-1.1,7.7-1.8c0.8-0.2,1.5-0.4,2.2-0.8c2-0.9,3.7-4,3.4-6.3
		c-0.2-1.4-0.3-2.7-0.2-4.1c0.2-2.6-0.4-5-2-7.1c-0.7-0.8-0.8-1.6-0.5-2.6c1-4.4-1.4-6.9-4.8-8.1c-2.1-0.7-4.2-0.8-6.4-0.1
		c-0.8,0.2-1.2,0.2-1.4-0.7c-0.2-0.9-0.5-1.8-0.8-2.7c-0.2-0.7-0.2-1.4,0.3-2c0.9-1.1,1.1-2.5,1.4-3.8c0.4-1.9,0.7-3.8,1.1-5.7
		c0.1-0.4,0-0.9,0.4-1.2c1.5-1.2,1.9-3.2,2.8-4.8c1.1-2,1.2-4.4,1.6-6.6c0.2-1,0.4-1.8,1.1-2.5c3.2-3.5,4.4-8,5.3-12.5
		c0.2-0.9,0.2-1.9,0-2.8c-0.6-1.8-0.1-3.4,0.5-5c0.4-1.1,0.7-2.3,0.9-3.5c0.8-4.5-0.5-8.3-3.8-11.5c-3.2-3.1-6.3-6.5-9.8-9.4
		c-1.9-1.6-2-3.5-1.9-5.6c0-0.4,0.1-0.7,0.5-0.9c0.4-0.2,0.7-0.4,1.1-0.7c2.8-1.9,3.9-4.5,3.7-7.8c-0.1-1.1,0.1-2,0.7-3
		c0.8-1.4,0.9-3,1-4.6c0.1-1.2,0.2-2.4,0.7-3.5c0.8-1.8,0.7-3.6,0-5.5c-0.3-0.8-0.2-1.5,0.1-2.4c1.3-4.4,2.1-8.8-0.1-13.2
		c-0.2-0.4-0.5-0.9-0.7-1.3c-1.3-2.1-3.3-3.5-4.7-5.6c-0.7-1.1-2.2-1.4-3.3-2c-3.6-1.9-7.5-3-11.5-3.1c-8.1-0.2-14.7,2.7-18.8,10.1
		c-0.6,1.1-1.3,2.1-2.4,3c-5.8,4.6-6.7,10.9-4.6,17.4c0.7,2.2,1.9,4.2,2.8,6.3c1,2.2,1.9,4.5,2.3,6.9c-3.6,1.3-7.2,2.4-10.5,4.3
		c-0.9,0.5-1.7,1-2.4,1.7c-2.5,2.4-5.4,4.3-7.8,6.8c-2.7,2.8-4.6,6-5.8,9.7c-0.4,1.4-0.9,2.6-1.9,3.8c-5.3,6.5-9.8,13.4-13.3,21
		c-0.6,1.2-1.6,2-2.5,2.9c-2.4,2.6-4.4,5.5-5,9.1c-0.7,4-0.1,7.7,2.2,11.1c0.9,1.3,2,2.1,3.6,2.6c4.1,1.2,8.2,2.4,12.3,3.7
		c0.3,0.1,0.7,0.2,1.2,0.4c-0.7,1.7-1.4,3.4-2.2,5.1c-2.5,5.5-4.5,11.2-6.1,17c-0.3,1.2-0.9,2.3-1.4,3.4c-1.9,4.2-3.1,8.6-3.2,13.3
		c0,1.4-0.3,2.7-0.8,4c-2.3,5.5-4,11.2-4.9,17.1c-1,6.5-1.6,12.9-0.9,19.5c0.2,2,0.1,1.9-1.7,2.7c-1,0.4-2,1-2.8,1.7
		c-1.2,1-2.4,1.4-3.9,1.5c-2.6,0.2-4.9,1.1-7,2.6c-1.3-1.2-2.9-1.9-4.3-2.9c-9.2-5.9-16.6-13.6-22.4-22.9
		c-7.8-12.6-11.8-26.4-13.7-41c-0.8-6.6-1.4-13.3-1.3-20C69.1,229.1,68.8,228,69.8,227.3z"/>
	<path class="st10" d="M769.6,193.2c-1.7,9.6-3.3,18.9-5,28.2c-1.4,7.9-2.8,15.8-4.2,23.8c-0.2,1-0.5,1.5-1.6,1.4
		c-8.8,0-17.5,0-26.3,0c-0.2,0-0.4-0.1-0.7-0.1c0-2.2,0.6-4.2,1-6.3c2.6-15.1,5.3-30.1,8-45.2c2.5-14.3,5-28.6,7.5-42.8
		c0.1-0.6,0.2-1.3,0.4-1.9c0.3-1.8,0.3-1.8,2.2-1.8c8.2,0,16.4,0,24.6,0c1.5,0,2.1,0.5,2.8,1.8c8.4,16.7,16.8,33.4,25.2,50
		c0.3,0.6,0.5,1.3,1.2,2c0.8-2.3,1-4.6,1.4-6.9c2.6-14.5,5.1-29,7.7-43.5c0.2-1.1,0-2.4,0.7-3.1c0.8-0.8,2.2-0.3,3.3-0.3
		c7.8,0,15.5,0,23.3,0c1.8,0,1.9,0,1.5,1.8c-4.2,24-8.5,47.9-12.7,71.9c-1.3,7.6-2.7,15.3-4,22.9c-0.3,1.6-0.3,1.6-1.9,1.6
		c-8.5,0-17,0-25.5,0c-1.3,0-1.9-0.6-2.4-1.6c-8.3-16.5-16.7-33.1-25.1-49.6C770.7,194.8,770.5,194,769.6,193.2z"/>
	<path class="st10" d="M559.5,296.2c1.2-7.4,2.4-14.6,3.6-21.8c0.7-4.1,1.4-8.2,2.1-12.3c0.1-0.9,0.4-1.4,1.5-1.4
		c7.4,0,14.8,0,22.2,0c0.3,0,0.5,0.1,0.9,0.2c-0.6,3.7-1.1,7.4-1.7,11.1c-2.8,17.9-5.6,35.8-8.5,53.6c-0.4,2.7-0.8,5.4-1.3,8.1
		c-0.3,1.7-0.3,1.7-2,1.7c-5.3,0-10.6,0-16,0.1c-1.3,0-2.1-0.4-2.9-1.4c-4.7-5.9-9.4-11.8-14.2-17.7c-4.4-5.5-8.8-10.9-13.2-16.4
		c-0.8,0.1-0.5,0.7-0.6,1c-1.9,10.7-3.8,21.4-5.7,32c-0.1,0.4-0.2,0.7-0.2,1.1c0,1.3-0.7,1.5-1.8,1.5c-5.9,0-11.8,0.1-17.7,0.1
		c-1.9,0-3.7,0-5.6,0c-0.2-1.4,0.2-2.6,0.4-3.8c3.9-21.3,7.8-42.7,11.8-64c0.4-2,0.8-3.9,1.1-5.9c0.1-1,0.6-1.3,1.6-1.3
		c5.3,0,10.6,0.1,16,0c1.2,0,1.8,0.7,2.4,1.5c4.5,5.7,9.1,11.3,13.6,17c4.2,5.2,8.3,10.4,12.5,15.6
		C558.3,295.3,558.6,295.9,559.5,296.2z"/>
	<path class="st10" d="M644.7,148.7c-0.3,0.8-0.9,1.2-1.3,1.8c-15.1,17.8-30.1,35.7-45.2,53.5c-0.9,1-1.4,2.1-1.6,3.4
		c-2.2,12.5-4.4,25-6.6,37.5c-0.3,1.7-0.3,1.7-1.8,1.7c-9.3,0-18.5,0-27.8,0c-0.3,0-0.6-0.1-0.9-0.1c0.1-2.2,0.6-4.3,1-6.4
		c1.9-11,3.9-21.9,5.8-32.9c0.2-1.3,0-2.4-0.6-3.5c-8.8-17.7-17.5-35.4-26.2-53.1c-0.3-0.6-0.8-1.2-0.8-2c0.5-0.5,1.1-0.3,1.6-0.3
		c9.9,0,19.8,0,29.8-0.1c1.6,0,2.2,0.6,2.8,2c4.1,9.9,8.3,19.7,12.5,29.6c0.2,0.4,0.3,1,0.7,1.3c0.8-0.5,1.2-1.4,1.8-2.1
		c7.5-9.7,15.1-19.4,22.6-29.2c0.9-1.1,1.7-1.6,3.2-1.6c9.8,0.1,19.7,0,29.5,0C643.6,148.4,644.1,148.3,644.7,148.7z"/>
	<path class="st10" d="M411,335.7c-0.8,0.6-1.4,0.4-2.1,0.4c-8.6,0.1-17.3,0.1-25.9,0.2c-1.5,0-2.3-0.5-3-1.8
		c-2.9-5.6-6-11.2-8.9-16.8c-0.6-1.2-1.3-1.8-2.8-1.7c-2.5,0.2-5,0-7.5,0.1c-1.6,0-1.8-0.4-2.3,1.9c-1.2,5.5-2.5,10.9-3.8,16.4
		c-0.1,0.3-0.2,0.7-0.3,1c-0.1,0.7-0.5,1-1.2,0.9c-0.4,0-0.9,0-1.3,0c-6.9,0-13.8,0.1-20.7,0.1c-0.8,0-1.6,0.2-2.4-0.3
		c0.6-2.8,1.3-5.6,1.9-8.3c2.3-9.7,4.6-19.4,6.9-29.1c0.1-0.4,0.2-0.8,0.3-1.3c0.1-0.7,0.5-1.1,1.3-1.1c0.4,0,0.9,0,1.3,0
		c11.9-0.1,23.7-0.1,35.6-0.2c3.3,0,6.4-0.5,9.3-2.2c1.8-1.1,3.4-2.4,4.3-4.4c1.6-3.4,0.5-6.7-2.6-8.6c-2.1-1.3-4.4-1.6-6.8-1.6
		c-9.8,0-19.6,0-29.3,0c-2.4,0-4.9,0-7.3,0c-0.9,0-1.6-0.2-2.4-0.8c-7.1-5.7-14.2-11.4-21.3-17.2c-0.1-0.1-0.1-0.2-0.2-0.5
		c0.5-0.3,1.1-0.2,1.6-0.2c21.7,0,43.4,0,65.1,0c6,0,11.9,1,17.4,3.5c8.6,3.9,12.9,11,12.3,20.5c-0.5,8.4-4.5,15-10.6,20.4
		c-2.2,2-4.7,3.5-7.3,4.9c-1.7,0.9-1.7,0.9-0.8,2.4c3.4,5.9,6.9,11.8,10.4,17.7C408.9,332,410,333.8,411,335.7z"/>
	<path class="st10" d="M505.8,261c-0.7,3.7-1.3,7.4-2,11.1c-1.7,9.1-3.4,18.2-5.1,27.3c-1.3,6.7-3.4,13.1-7.1,18.8
		c-5,7.8-11.8,13.3-20.6,16.3c-11.6,3.9-23.4,4.4-35.2,1c-6.3-1.8-11.6-5.4-15.2-11c-2.5-3.9-3.8-8.2-4.1-12.8
		c-0.3-4.2,0.1-8.3,0.9-12.4c2.6-12.2,5.2-24.5,7.8-36.7c0.4-1.8,0.4-1.8,2.2-1.8c7.1,0,14.2,0,21.3,0c0.6,0,1.2-0.1,1.8,0.4
		c-0.6,3.1-1.3,6.4-1.9,9.6c-2,9.9-4,19.8-6,29.8c-0.5,2.3-0.6,4.6-0.3,6.9c0.7,4.4,3.2,7.3,7.6,8.4c8.5,2.2,17.9-1.2,21.9-10.7
		c1.4-3.2,1.8-6.6,2.5-10c2.1-10.9,4.2-21.9,6.3-32.8c0.2-0.9,0.4-1.5,1.6-1.5c7.6,0.1,15.2,0,22.9,0.1
		C505.3,260.8,505.4,260.8,505.8,261z"/>
	<path class="st10" d="M791.7,291.1c2.7-1.6,5.4-3,8.4-3.6c7.4-1.6,14.7-1.4,21.6,2.2c6,3.1,9.5,8.2,11,14.7
		c1.4,5.9,1.3,11.8-1.3,17.5c-3.1,6.8-8.5,11-15.4,13.6c-5.9,2.2-12.1,2.5-18.3,2c-4.3-0.4-8.5-1.1-12.6-2.8
		c-5.9-2.4-10.6-6.2-13.3-12.2c-1.2-2.8-1.8-5.7-2-8.8c-0.1-1,0.2-1.4,1.3-1.4c5.5,0,10.9,0,16.4,0c0.7,0,1.3,0,1.4,0.9
		c0.3,6.2,6,10.3,13.7,9.5c10.3-1.1,11.6-12.7,7.6-18.1c-1.2-1.5-2.6-2.7-4.3-3.4c-5.4-2.2-10.9-0.9-14.8,3.5
		c-0.7,0.8-1.3,0.9-2.3,0.8c-4.5-0.7-9-1.2-13.4-1.9c-0.7-0.1-1.8,0.2-2-0.8c-0.2-0.9-0.3-2,0.4-2.9c0.9-1.3,1.9-2.5,2.8-3.9
		c3.6-5.7,4.5-11.9,3.4-18.4c-0.5-2.6-1.3-5-2.8-7.2c-1.1-1.5-1.4-3.1-1.1-4.9c0.2-1.3-0.1-2.9,0.6-3.7c0.8-0.9,2.4-0.3,3.7-0.3
		c14.7,0,29.5,0,44.2,0c0.6,0,1.2,0,1.7,0c1.9,0,1.9,0,1.9,1.9c0,4.8,0,9.6,0,14.4c0,2,0.2,1.9-2,1.9c-10.3,0-20.6,0-30.8,0
		c-2.9,0-2.8-0.4-3,2.7c-0.1,1.9-0.3,3.7-0.5,5.6C791.6,289.1,791.4,290,791.7,291.1z"/>
	<path class="st10" d="M638.4,318c0.9,0,1.5,0.1,2.2,0.1c6,0,11.9,0,17.9,0c1.9,0,2,0,2.5,1.8c1.8,5.4,4.5,10.3,8.8,14.1
		c0.2,0.2,0.5,0.4,0.6,0.6c0.6,0.9,0.2,1.6-0.9,1.7c-0.4,0-0.9,0-1.3,0c-19.1,0-38.2,0-57.4,0c-0.4,0-0.7,0-1.1,0
		c-0.8,0.1-1.1-0.3-1.2-1.1c-0.4-7.2,1.2-13.6,6.2-19.1c3.4-3.7,7.4-6.8,11.2-10.1c5.7-4.8,11.6-9.2,17.1-14.1
		c1.2-1.1,2.2-2.2,3.3-3.4c4.3-5.1,1.3-11.9-5-12.9c-2.5-0.4-5-0.3-7.4,0.7c-3.8,1.7-5.6,4.8-5.7,8.9c-0.1,2.7-0.1,2.6-2.7,2.7
		c-5.1,0.1-10.2-0.4-15.3,0c-0.9,0.1-1.3-0.3-1.4-1.2c-0.3-9.1,3.2-17.5,12.2-22.3c4-2.1,8.3-3.2,12.7-3.7
		c6.6-0.7,13.2-0.7,19.6,1.4c4.5,1.5,8.5,3.7,11.6,7.4c5.4,6.4,6.3,17.2,1.3,25c-2.8,4.4-6.6,7.9-10.7,11.1
		c-5.1,3.8-10.3,7.3-15.6,10.8C639.6,316.8,638.8,317.1,638.4,318z"/>
	<path class="st10" d="M745.6,318.1c0.7,0,1.4,0,2.1,0c5.8,0,11.6,0,17.5,0c1.7,0,1.7,0,2.1,1.7c1.4,5.6,4.5,10.2,9,13.8
		c0.4,0.3,0.8,0.6,1.1,1c0.6,0.8,0.2,1.7-0.8,1.7c-0.4,0-0.9,0-1.3,0c-19,0-38.1,0-57.1,0c-0.4,0-0.9,0-1.3,0c-0.4,0-0.9,0.1-1-0.5
		c-0.1-0.4,0-0.9,0.4-1.2c0.1,0,0.1-0.1,0.2-0.1c6.6-5.5,9.6-13,11-21.1c0.4-2.4,1.3-4,3.2-5.5c5.7-4.5,11.3-9.1,16.9-13.7
		c1.9-1.6,3.8-3.3,5.5-5.2c1.3-1.5,2.2-3.2,2.3-5.2c0.2-3.1-1.4-6.1-4.3-7.4c-3.5-1.5-7-1.5-10.4,0.1c-3,1.4-4.7,3.9-5.2,7.2
		c-0.1,0.9-0.2,1.9-0.2,2.8c0,0.9-0.2,1.3-1.2,1.3c-5.6,0-11.2,0-16.8,0c-0.9,0-1.3-0.4-1.3-1.3c-0.3-10.4,4.2-18.9,14.2-23.2
		c6.2-2.7,12.7-3.3,19.4-3.1c5.3,0.1,10.4,1.1,15.2,3.4c13.8,6.6,14.5,22.3,8.4,31.3c-2.3,3.3-5,6.2-8.2,8.8
		c-5.5,4.4-11.4,8.2-17.2,12.2c-0.8,0.5-1.5,1.1-2.3,1.6C745.5,317.8,745.5,317.9,745.6,318.1z"/>
	<path class="st10" d="M416.7,196.4c-1.6-0.7-3.3-1.3-5.1-2.2c0.6-0.3,1.3-0.5,1.9-0.8c4.8-1.9,9-4.8,12.1-9
		c3.5-4.7,5.3-10,5.4-15.8c0.1-8.8-5.3-15.9-13.9-18.6c-4.1-1.3-8.3-1.5-12.6-1.6c-18,0-35.9,0-53.9,0c-2,0-2,0-2.3,1.9
		c-0.9,5.3-1.9,10.6-2.8,15.9c-2.1,11.9-4.2,23.7-6.3,35.6c-1.9,11-3.9,22-5.8,33.1c-0.7,3.8-1.3,7.6-2,11.4
		c0.9,0.4,1.7,0.3,2.4,0.3c13.5,0,27-0.1,40.5,0c7.9,0.1,15.8-0.2,23.6-1.4c4.1-0.6,8.2-1.3,12-3.4c10.7-6,16.8-15.1,17.5-27.4
		C428,206.2,424.5,200,416.7,196.4z M397.4,214.1c-0.4,4.9-3.5,8.9-8.1,10.4c-1.9,0.6-3.8,1-5.7,1c-5.6,0-11.2,0-16.8,0
		c-0.3,0-0.6-0.1-1-0.1c0.7-4.2,1.4-8.3,2.1-12.3c0.4-2.1,0.8-4.2,1.1-6.4c0.1-0.7,0.4-1,1.1-1c6.6,0.2,13.2-0.4,19.8,0.4
		c1,0.1,2,0.4,2.9,0.8C396,208,397.7,210.8,397.4,214.1z M400,177.8c-0.9,5.1-4.3,8.1-9.5,8.8c-1.6,0.2-3.3,0.4-4.9,0.4
		c-3.7,0-7.3,0-11,0c-0.6,0-1.3,0.2-2-0.3c0.7-4.3,1.5-8.5,2.2-12.8c0.2-1.4,0.5-2.8,0.7-4.2c0.1-0.9,0.5-1.2,1.4-1.2
		c5.2,0.1,10.3-0.1,15.5,0.1c0.6,0,1.1,0.2,1.7,0.3C399.2,169.7,400.9,173,400,177.8z"/>
	<g>
		<path class="st10" d="M255.6,290.2C255.6,290.2,255.6,290.2,255.6,290.2L255.6,290.2z"/>
		<path class="st10" d="M308.7,214c-1.9-18.6-8.3-35.4-19-50.7c-6.7-9.5-14.5-18-22.6-26.3c-7.8-8-15.7-15.8-23-24.2
			c-13.8-15.7-22.6-33.8-26.3-54.4c-0.5-2.8-0.8-5.5-1.3-8.3c-0.4,8.6,0.3,17.1,2,25.5c2.4,12.1,6.7,23.5,14,33.6
			c3.3,4.5,6.6,9.1,9.9,13.6c6.6,9,13.4,17.8,19.4,27.2c0.3,0.3,0.6,0.6,0.9,0.9c0.5,0.5,1,1.1,1.4,1.6c0.9,1,1.7,1.9,2.6,2.6
			c0.1,0,0.2,0.1,0.3,0.1c0.4,0.2,0.8,0.4,1.2,0.7c0.1,0.1,0.2,0.2,0.3,0.4c4,5.9,6.9,12.4,9.1,18c5.3,13.2,7.5,27,6.8,40.9
			c-0.9,15.9-4.4,31.4-10.6,46c-4.1,9.7-9.4,18.6-15.8,26.3c-0.3,0.3-0.6,0.7-0.9,1c0.1-0.1,0.2-0.2,0.3-0.3
			c11.8-10.4,22-22.1,29.6-35.8c4.6-8.3,7.8-17.1,9.4-26.4c1.6-9.3,2.8-18.6,2.6-28c-0.2-7.4-1-14.8-3.4-21.8
			c-0.6-1.8-1.3-3.6-2.2-5.3c0,0,0,0,0,0v0c0,0,0,0,0-0.1c0-0.2-0.1-0.3-0.1-0.5c0.4,0.1,0.2,0.3,0.1,0.5c0,0,0,0,0,0.1c0,0,0,0,0,0
			c1,0.1,1,1,1.4,1.6c2.6,4.8,4.2,10.1,5.2,15.5c2.1,11.7,1.4,23.3-0.6,34.9c-4.8,28-19.6,49.5-42,66.4c-0.5,0.4-1,1-1.7,1h-0.1
			c0,0,0,0,0,0h0c0,0,0,0,0,0c0,0.1-0.1,0.2-0.1,0.3c-0.1,0.1-0.2,0.2-0.3,0.3c-8.9,9.9-18.7,17.1-29.8,21.9
			c-0.2,0.1-0.3,0.1-0.5,0.2c-0.8,0.4-1.8,0.8-3,0.8c-0.3,0-0.7,0-1-0.1c0,0.1,0,0.2,0,0.3c0.2,1.8,0.6,3.6,0.6,5.3
			c-0.2,6.2,1.2,12.3,1.8,18.4c0.1,1.7,0.2,1.7,1.9,1.4c8.3-1.5,15.9-4.6,23-8.9c16.5-10.1,29.1-24,38.6-40.7
			c10.4-18.3,15.4-38.3,17-59.2c0.2-3,0.3-6,0.5-9c0.2,0.6,0.2,1.3,0.3,1.9c0.6,8.3,0.2,16.7-0.8,25c-2.7,22.4-10.6,42.7-25,60.3
			c-14.4,17.6-31.6,31.1-53.8,37.4c-1.2,0.3-1.4,0.9-1.4,2c0,2.5,0,4.9,0,7.3c0,0.4-0.3,1,0.3,1.3c0.2-0.1,0.4-0.1,0.6-0.2
			c18-8,34.4-18.6,48.4-32.6c11.3-11.3,20.2-24.2,26.4-39c4-9.6,6.5-19.6,8.1-29.9C309.2,241.2,310.1,227.6,308.7,214z"/>
	</g>
	<path class="st10" d="M721.4,245.5c-1.2-6.1-2.4-12.1-3.6-18.1c-3.7-18.4-7.3-36.7-11-55.1c-1.5-7.4-2.9-14.8-4.4-22.2
		c-0.2-1-0.4-1.6-1.7-1.6c-10.1,0.1-20.3,0-30.4,0c-1,0-1.5,0.4-2,1.3c-1.2,2.3-2.5,4.5-3.7,6.8c-14.9,27-29.9,54-44.8,81.1
		c-1.6,2.9-3.2,5.9-4.8,8.7c0.2,0.4,0.4,0.4,0.6,0.4c9.6,0,19.3,0,28.9,0c1.1,0,1.5-0.5,1.9-1.3c2-4.4,4.1-8.7,6.1-13.1
		c0.6-1.3,1.2-1.8,2.7-1.8c10.3,0.1,20.6,0,30.8,0c1.9,0,1.9,0,2.2,1.8c0.5,4.1,1,8.1,1.4,12.2c0.2,2.1,0.2,2.1,2.2,2.1
		c9.3,0,18.5,0,27.8,0c0.6,0,1.1,0.1,1.9-0.2C721.5,246,721.5,245.7,721.4,245.5z M683.6,209.2c-6.5,0-12.9,0-19.4,0
		c0.3-1.8,15.2-32.9,16.6-34.5c0.5,3.6,1,7.2,1.4,10.7c1,7.3,1.9,14.7,2.9,22C685.3,209.1,685.4,209.2,683.6,209.2z"/>
	<path class="st10" d="M532.7,245.6c-2.1-10.7-4.2-21.4-6.4-32.1c-3.5-17.7-7.1-35.3-10.6-53c-0.7-3.6-1.5-7.2-2.1-10.8
		c-0.2-1-0.5-1.4-1.5-1.3c-0.5,0-1,0-1.5,0c-8.8,0-17.7,0-26.5,0c-3.8,0-3.8,0-5.7,3.4c-15.8,28.7-31.7,57.3-47.5,86
		c-1.6,2.8-3.1,5.6-4.7,8.6c0.4,0.1,0.6,0.1,0.7,0.1c9.6,0,19.3,0,28.9,0c1.1,0,1.5-0.4,1.9-1.3c2.1-4.5,4.2-9,6.3-13.5
		c0.4-0.9,0.9-1.4,2.1-1.4c10.6,0,21.1,0,31.7,0c1.2,0,1.6,0.4,1.7,1.6c0.5,4.4,1.1,8.7,1.6,13c0.1,1.1,0.4,1.8,1.6,1.6
		c0.2,0,0.4,0,0.6,0c9.2,0,18.4,0,27.6,0c0.6,0,1.3,0.1,1.9-0.2C532.9,246.2,532.8,245.9,532.7,245.6z M475.4,209
		c0.2-1.4,14.7-31.8,16.4-34.3c0.7,1.7,4.2,30.4,4.6,34.3C489.4,209,482.4,209,475.4,209z"/>
	<path class="st10" d="M68.1,225.8c0.8-3.5,1.7-7.1,2.7-10.6c0,0,0,0,0,0c0.4-2.6,1-5.2,1.6-7.8c3.6-14.7,9.8-28.3,17.4-41.4
		c10.2-17.7,22.5-33.9,36-49.1c2-2.2,4-4.4,6-6.6c-2.7,2.1-5.1,4.4-7.6,6.8c-5.6,5.4-10.9,11-16.1,16.8
		c-15.1,16.9-28.7,34.9-39.3,54.9c-9.9,18.6-16.8,38.2-18.3,59.5c-1,14.6-0.3,29,2.8,43.3c3.6,16.6,10.6,31.7,21.9,44.6
		c6.9,7.9,14.9,14.3,24.2,19.2c0.8,0.4,1.5,1,2.6,1c-0.3-1.7-0.6-3.1-0.8-4.6c-0.1-0.9-0.6-1.5-1.5-2c-2.8-1.7-5.4-3.6-7.9-5.6
		c-14.3-11.2-24.9-25.2-30.5-42.6c-3.4-10.4-5.4-21.2-6.2-32.1c-0.3-3.5-0.6-7-0.3-10.9c0.5,8.5,1.5,16.6,3.3,24.6
		c2.5,11.6,6.5,22.5,13.3,32.3c7.9,11.4,17.8,20.9,28.9,29.1c0.2,0.2,0.5,0.3,0.8,0.2c0.1-0.5,0.3-0.9,0.4-1.4
		c0.5-3.3,1.7-6.4,3-9.4c2.1-4.9,4.3-9.8,5.4-15.1c0,0,0-0.1,0-0.1c-0.1-0.1-0.3-0.2-0.4-0.3c-0.8-0.7-1.7-1.3-2.7-1.9
		c-0.5-0.3-0.9-0.5-1.3-0.8c-5.6-3.6-10.7-7.9-15.1-12.9c-0.4,0-0.6-0.2-0.9-0.4c-9.2-7.4-17-16-22.9-26.3
		c-4.3-7.7-6.9-15.9-8.1-24.6c-1.3-9.1-1.7-18.3-0.5-27.5c0.9-7.2,2.7-14.1,6-20.5c0.2-0.4,0.3-1,0.8-1.1c0,0,0,0,0,0c0,0,0,0,0,0
		c-0.1-0.4,0-0.7,0.4-0.8c0,0,0,0,0-0.1c0,0,0,0,0,0c0-0.3,0.1-0.6,0.4-0.8v-0.1l0,0c0,0,0,0,0,0c0,0.3,0.1,0.7-0.4,0.8c0,0,0,0,0,0
		c0,0,0,0,0,0c0.1,0.4,0.1,0.7-0.4,0.8c0,0,0,0,0,0c0,0,0,0,0,0c0.1,0.4-0.1,0.8-0.3,1.2c-4,9.6-5.9,19.6-5.9,30
		c0,11.4,1.4,22.6,5.6,33.3c4.2,10.7,10.7,20,18.6,28.3c1.7,1.8,3.6,3.6,5.4,5.3c-2.1-2.6-4.1-5.4-5.9-8.3
		c-7.3-11.9-11.9-25.5-14-41.8c-1-7.5-1.4-14.1-1.3-20.2c0-0.1,0-0.3,0-0.4c0-0.8-0.1-2.2,0.9-3.4L68.1,225.8z"/>
	<path class="st10" d="M725,293.2c-0.1-1.7-0.1-1.8-1.9-1.8c-2.9,0-5.9,0-8.8,0c-1.1,0-1.5-0.4-1.6-1.5c-0.9-7,0-13.6,3.9-19.6
		c0.7-1,0.4-1.6-0.3-2.4c-2.4-2.5-5.2-4.3-8.5-5.4c-8.8-3-17.6-3-26.5-0.7c-4.3,1.1-8,3.2-11,6.5c-0.6,0.7-0.8,1.2-0.3,2
		c2.4,4,3.3,8.3,3.2,13c0,4.9-1.4,9.3-4.1,13.4c-1.8,2.7-3.8,5.2-6.2,7.4c-0.8,0.7-1.1,1.4-1,2.4c0.5,5.2,1.5,10.2,3.4,15.1
		c3.1,7.8,8.7,12.9,16.9,14.8c7.2,1.7,14.5,1.7,21.8,0.1c4.7-1.1,8.9-3.1,12.3-6.7c3.2-3.4,5-7.5,6.4-11.8c1.8-5.9,2.3-12,2.5-18.1
		C725.4,297.6,725.2,295.4,725,293.2z M703.4,311.9c-0.2,2-0.6,4-1.4,5.8c-1.5,3.3-3.9,5.2-7.7,5.2c-1.4,0-2.7,0.1-4.1-0.3
		c-2.6-0.8-4.3-2.6-5.3-5c-1.1-2.7-1.7-5.5-1.8-8.4c-0.1-3.4,0-6.9,0-10.3c-0.1-4.6-0.3-9.2,0.4-13.8c0.2-1.4,0.6-2.8,1-4.2
		c1.8-5.2,6.2-6.8,10.8-6.1c3.7,0.6,6,2.9,7.1,6.4c0.9,2.7,1.2,5.5,1.3,8.3C703.9,297,704.1,304.5,703.4,311.9z"/>
	<path class="st10" d="M236.4,413.6c-1.9-2.6-4.4-4.3-7.5-3.6c-2.4,0.5-4-0.2-5.6-1.6c-0.9-0.8-1.9-1.5-2.8-2.3
		c-1.3-1.1-2.5-2.2-2.7-4c-0.1-0.4-0.2-0.9-0.5-1.1c-1.1-0.8-0.9-2-0.9-3.2c0-3.7,0.8-7.3,1.2-10.9c0.9-6.6,1.3-13.2,1.6-19.8
		c0.4-8.1,0.5-16.3-0.6-24.3c-0.8-6.1-1.2-12.3-1.6-18.5c-0.3-4.6-0.8-9.2-0.6-13.8c0.1-4.9-0.2-9.8-0.8-14.6
		c-0.7-5.7-1.9-11.2-5.2-16c-0.9-1.4-1.6-2.9-2.3-4.4c-1.5-2.8-1.8-5.7-1.2-8.8c0.1-0.7,0.4-0.9,1.1-1c1.8-0.2,3.3,0.1,4.4,1.6
		c0.7,0.9,1.8,1.4,2.6,0.6c1-1,2.4-1,3.5-1.5c2.5-1,2.8-1.3,2.1-3.8c-0.2-0.6-0.3-1.2-0.1-1.9c0.8-2.7,0-4.8-2.3-6.4
		c-0.7-0.5-1.6-0.7-2-1.5c1-0.9,1.7-2,2.1-3.2c0.5-1.4,0.2-2.1-1.2-2.8c-1.3-0.6-2.6-0.7-4-0.4c-1.3,0.3-2.6,0.7-4,1
		c-1.5,0.4-1.6,0.5-2.2-1c-1.1-2.6-1.6-5.4-2.3-8.1c-0.4-1.5-0.1-2.7,0.8-3.8c0.5-0.6,1-1.3,1.1-2.1c0.2-2.7,1.4-5.3,1.4-8
		c0-0.6,0.1-1,0.7-1.4c0.8-0.4,3.1-4.5,3.2-5.4c0-0.2,0-0.4,0-0.6c-0.1-0.7,0-1.3,0.4-1.9c0.3-0.5,0.5-1.2,0.2-1.7
		c-0.7-1.5,0.3-2.3,1.2-3.3c4.1-4.4,6-9.6,4.7-15.6c-0.2-0.8,0-1.5,0.4-2.3c0.9-1.7,1.4-3.6,1.6-5.6c0.3-2.3-0.2-4.3-1.9-6.1
		c-3.6-3.8-7.3-7.3-11.2-10.8c-0.6-0.6-1.3-1.1-1.6-2c-0.7-2.1-1.3-4.3-1.2-6.5c0.1-2.2,0.9-4,3.2-4.8c1.5-0.5,2.2-1.8,2.2-3.4
		c0-0.6-0.1-1.3-0.2-1.9c-0.2-1.2-0.1-2.1,0.8-3.2c1.1-1.3,1.5-3,0.9-4.6c-0.4-1.1-0.4-1.8,0.4-2.7c1.3-1.3,1.3-2.8,0.4-4.4
		c-0.3-0.6-0.6-1.1-0.9-1.7c-0.6-1.2-0.3-3.2,0.6-4.2c0.1-0.1,0.2-0.2,0.3-0.1c1.1,0.9,0.8-0.2,0.9-0.7c0.1-1.1,0.3-2.3,0.4-3.4
		c0.1-3.6-1.4-6.2-4.5-8c-0.6-0.3-1.2-0.6-1.9-1c0.4-0.3,0.7-0.5,1.1-0.8c-4.2-2.3-8.4-3.9-13-3.8c-6.7,0.2-11.5,3.3-14.2,9.4
		c-0.4,0.9-1,1.5-1.8,2c-3.3,2-4.9,5-4.8,8.8c0.1,2.5,0.7,4.8,1.9,7c1.4,2.7,2.5,5.5,3.4,8.4c0.6,1.7,1.1,3.4,1.2,5.2
		c0.1,1.9,0.1,1.9-1.7,2.3c-0.8,0.2-1.5,0.3-2.3,0.5c-5.1,1.5-10.2,3.2-13.7,7.6c-0.3,0.3-0.7,0.5-1,0.8c-4.5,2.9-7.3,7-8.8,12.1
		c-0.4,1.4-1.1,2.6-2,3.7c-5.2,6.3-9.7,13.2-13.1,20.7c-0.4,0.9-1,1.7-1.7,2.4c-1.9,1.7-3.6,3.7-4.7,6.1c-1.3,2.9-1.3,5.8,0.1,8.7
		c0.6,1.2,1.4,1.9,2.7,2.3c3.8,1.2,7.7,2.4,11.6,3.3c2.1,0.5,4.3,1,6.4,1.5c0,0.7-0.4,1.2-0.6,1.7c-4,7.7-7.2,15.7-9.7,23.9
		c-0.5,1.7-1.1,3.4-1.9,5c-1.8,4.1-3,8.4-2.7,12.9c0.1,0.9-0.2,1.7-0.5,2.5c-5.2,12-7.3,24.6-6,37.7c0.1,1.2,0.1,2.4,0.2,3.7
		c0.1,0.8-0.3,1.2-1.1,1.2c-1.7,0.1-3.2,0.7-4.7,1.4c-1.3,0.7-2,2.2-3.4,2.5c-1.4,0.4-2.9,0.1-4.3,0.4c-3.2,0.6-5.4,2.3-6.1,5.8
		c-0.8,3.9-2.2,7.6-3.9,11.2c-1.2,2.7-2.4,5.4-3.3,8.2c-1.3,4.2-1.4,8.5-0.4,12.8c0.7,3.1,2,6,4.4,8.2c2.6,2.4,5.7,2.4,8.3,0
		c0.6-0.5,1.1-1.1,1.6-1.8c2.6-3.8,4.2-7.8,3.8-12.5c-0.1-0.7-0.1-1.4,0.4-2.1c1.9-3,3.4-6.2,3.7-9.8c0.2-2.3,2.1-3,3.8-3.6
		c1.3-0.5,2.2,0.8,3.1,1.6c0.4,0.3,0.8,0.8,1.1,1.3c0.3,0.4,0.6,0.7,1.2,0.8c4.2,0.6,8,0.1,11.2-3c1.5-1.5,2.7-3.2,3.5-5.1
		c2.5-6,5-12.1,7.2-18.2c0.2-0.6,0.3-1.4,1.1-1.7c3.1-1.3,6.1-2.6,9.4-2.9c1.6-0.1,1.6-0.1,1.7-1.7c0.1-2.9,0.5-5.8,1.8-9
		c1.9,2.8,3.5,5.4,5.3,7.8c1.7,2.2,3.3,4.4,5.6,5.9c2.6,1.7,4.4,4.1,5.9,6.7c4.1,6.9,7.2,14.2,9.9,21.8c0.2,0.7,0.4,1.4,0.2,2.1
		c-1.7,7.7-1.6,15.6-0.9,23.4c0.5,5,1.5,10,3.6,14.6c0.3,0.7,0.4,1.4,0.5,2.1c0.4,5.3,0.7,10.6,0.7,15.9c0.1,4.2,0,8.3-0.5,12.5
		c-0.1,0.6-0.1,1.3-0.8,1.6c-2.4,1.2-2.9,3.4-3.1,5.8c-0.1,1.4,0,2.7,0.1,4.1c0.3,3,0.4,6-1.3,8.8c-1,1.6-1.1,3.5-0.7,5.4
		c0.2,0.9,0.6,1.5,1.6,1.8c3.4,1,6.8,2,10.3,2.1c2.9,0.1,5.8-0.2,8.3-1.9c1.3-0.9,2.5-1.2,4-1.2c4.4-0.1,8.6-0.9,12.3-3.2
		C239,429,241,419.9,236.4,413.6z M216.4,265.1c-0.4,0.2-0.8,0-1.1-0.4c-0.9-0.8-1.7-1.7-2.6-2.5c-0.3-0.3-0.7-0.5-1.1-0.5
		c0,0,0,0,0,0l0,0h0v0l0,0c0,0,0,0,0,0c0.9,1.1,2,2,2.6,3.3c0.2,0.4,0.4,0.8,0,1.2c-0.6,0.5-1,0-1.2-0.4c-0.5-0.8-1.1-1.3-1.9-1.7
		c-0.4-0.3-1.3-0.2-1.1-1.1c0.2-0.7,0.5-1.4,1.4-1.3c0,0,0,0,0,0c0,0,0,0,0,0c0-0.9,0.9-1.4,1.1-2.5c1.7,1.4,3.1,2.7,3.8,4.5
		C216.7,264.2,217,264.8,216.4,265.1z M204.6,248.3c0.9,1.7,1.8,2.1,3.7,1.5c2-0.7,3.9-1.3,6-1.4c0.7,0,1.5-0.2,1.8,0.7
		c0.2,0.6-0.8,1.7-1.7,1.9c-0.5,0.1-1,0-1.5,0c-0.6,0-1.3,0-1.9,0c-0.1,0-0.2,0.1-0.6,0.4c1.8,0.3,2.8,1.4,3.7,2.6
		c0.7,0.9,1.9,1.2,2.9,1.8c1.4,0.8,2,1.9,1.7,3.7c-1.6-0.3-1.9-2.1-3.6-2.4c0,0.6,0.4,0.8,0.7,1.2c1,1.2,2,2.5,2.6,4
		c0.2,0.5,0.4,0.9,0.4,1.4c0.1,0.3,0,0.7-0.3,0.9c-0.4,0.2-0.7-0.1-0.9-0.4c-0.3-0.3-0.5-0.7-0.7-1.1c-0.7-1.3-1.6-2.4-2.8-3.3
		c-0.8-0.6-0.9-1.1-0.3-1.9c0.3-0.4,0.3-0.9,0.2-1.6c-1,2.6-3.1,4.2-4.5,6.3c-0.3,0.4-0.7,0.3-1.1,0c-1.3-0.9-1.4-2.4-0.2-3.4
		c0.3-0.3,0.7-0.5,1.1-0.8c-1.8-1.2-1.4-2.9-1.1-4.5c0.2-1.1-0.1-1.5-1-2c-1.6-0.9-3.1-0.9-4.5,0.6c-0.5-2.4-0.5-2.5,0.7-7
		C204.3,246.4,204.2,247.5,204.6,248.3z M180.4,143.4c-1.1-1.7-1.4-3.6-1.2-5.6c0.1-0.8,0.4-1.5,0.9-2.2c0.7-0.9,1.6-1.2,2.7-1.1
		c1,0.1,1.9,1,2,2.3c0.1,1.1,0.3,2.1,0.6,3.2c0.1,0.6,0.2,1.3,1.1,1.5c0.3-1.3,0-2.8,0.7-4c0.7-1.2,2-1.8,2.7-3
		c-0.1-0.6-0.5-0.4-0.8-0.5c-0.8-0.4-0.9-1.4-0.2-1.7c0.8-0.4,0.9-1.5,1.9-1.9c0.8-0.4,0.6-1.5-0.6-3.1c2.8-0.2,4.6-2.3,6.9-3.6
		c0.3,0.7-0.3,1-0.2,1.7c2-0.5,3.7-1.8,5.8-1.9c0,0.4-0.5,0.5-0.5,0.9c0.1,0.2,0.3,0.1,0.5,0.1c0.6-0.1,1.4-0.8,1.3,0.6
		c0,0,0.4,0.1,0.6,0.2c2.9,0.7,3.5,1.4,3.8,4.3c0.1,1.6,0.1,1.6-1.4,1.6c-1.7,0.1-3.3-0.3-4.9-0.8c-1.7-0.5-3.5-0.8-5.2,0.3
		c-0.4,0.3-0.9,0.4-0.9,1.1c0.8,0.4,1.7-0.2,2.5,0.3c-0.3,0.6-1.2,0.2-1.2,1.1c0.9,0.8,2.1,0.8,3.1,1.2c0.6,0.2,1.6-0.1,1.3,1.2
		c-0.1,0.4,0.4,0.4,0.6,0.3c0.9-0.1,1.6-0.6,2.2-1.2c0.4-0.5,0.9-1,1.5-1.2c0.8-0.2,1.6-0.3,1.9,0.8c0.3,1.1,0.9,2.1,1.4,3.1
		c0.9,1.9,0.8,2.4-0.9,3.6c-0.4,0.3-0.9,0.5-1.3,0.8c0.2,0.9,0.9,1.6,1.5,2.5c-0.8,0.3-1.6,0.3-2.3,0.1c-1.3-0.4-2.1,0.3-3.4,1.2
		c1.7,0.1,2.9,0.2,4.1,0.3c0.4,0,1,0.1,1,0.6c0.1,0.6-0.4,0.9-0.9,1c-0.8,0.1-1.6,0.1-2.4,0.1c0,0.8,0.7,1.1,1.2,1.5
		c1.9,1.6,1.5,4-0.9,4.9c-1,0.4-2.1,0.4-3.2,0.3c-3-0.4-5.9-1.4-8.8-2.2c-0.7-0.2-1.4-0.3-2.5-0.6c3.6,3,7.1,5.5,9.8,8.8
		c-0.1,0.6-0.5,0.5-0.9,0.5c-1.2,0-1.6,0.7-1.7,1.8c0,1.4,0,2.9,0.3,4.3c0.2,1.2,0.3,2.4,0.1,3.6c-0.6,0.3-1-0.1-1.4-0.4
		c-2-1.4-3.6-3.1-4.9-5.1c-1.3-2-2.6-4.1-3.9-6.2c-0.8-1.2-1.5-2.5-2.7-3.4c-2.5-1.9-2.4-4.7-3.1-7.3c4-0.6,4.2-0.7,3.8-3.4
		c-0.5-0.3-0.8,0.1-1.2,0.2C182.7,145.7,181.6,145.3,180.4,143.4z M149.5,218.5c-0.1,0-0.2-0.1-0.6-0.3c6.4,0.1,12.5,1.3,18.7,0.2
		c-10-1.1-20.1-1.5-29.5-6.6c1.8,2.7,3.6,4.9,6.1,6.9c-3.9,0.3-8.4-2.3-9.9-5.7c-0.4-0.9-0.3-1.8,0.1-2.7c0.7-1.8,1.9-3.2,3.3-4.4
		c1.2-1.1,2-2.4,2.8-3.8c2.9-5.5,5.8-11.1,9.6-16.1c0.8-1,1.5-2.1,2.8-2.9c-0.1,1.8-1.2,3.3-0.5,5c0.7-0.1,0.7-0.8,0.8-1.1
		c1.2-3.6,2.4-7.2,3.7-10.8c0.7-1.9,1.5-3.7,2.5-5.5c1-1.7,2.4-3.1,4.3-3.8c0.8-0.3,1.5-0.8,2.1-1.4c1.5-1.2,3.1-2.1,5-2.5
		c2.3-0.5,4.2,0.1,5.8,2c0.6,0.8,0.7,1.5,0.1,2.3c-1.7,2.1-3.3,4.2-5,6.2c-4.1,4.8-8.6,9.2-14,12.9c2.6-0.6,5.2-1.2,8.3-2
		c-4.5,10.2-12.4,15.5-22.9,18.5c3.4,1.3,6.4,2.2,9.2,3.7c2.8,1.5,5.6,3.1,8.5,5.4c-2.1-0.2-3.7-0.6-5.7-1.3
		c2.2,2.6,4.7,3.4,7.4,3.9c6.3,1.1,12.6,0.7,18.8-0.6c1.4-0.3,2.6-0.9,3.7-1.7c1.1-0.7,2.3-1.2,3.5-1.5c3.4-0.7,6.5-2.2,9.2-4.5
		c0.5-0.4,1-0.9,1.7-0.7c0.7,0.2,1.2,0.6,1.3,1.3c0.1,0.7-0.2,1.1-0.8,1.3c-0.5,0.2-1,0.3-1.3,0.8c2-0.4,3.9-0.6,5.9-0.5
		c2.7,0.1,5.4,3.2,5,6.2c-2.2-2.5-4.7-4-8.1-3.6c-1.5,0.2-3.1,0-4.9,1.3c2.4-0.3,4.4-0.4,6.4-0.3c3.3,0.1,4.8,2.5,6.5,4.8
		c0.2,0.3,0.1,0.6-0.1,0.8c-0.2,0.3-0.6,0.4-1,0.3c-0.6-0.2-1.1-0.5-1.4-1c-1.2-1.6-2.8-2.1-4.7-2c-1.5,0.1-3-0.2-4.5,0.2
		c-0.4,0.1-0.8,0.2-1.3,0.8c2,0,3.9,0,5.8,0c2.9,0,4.4,1.9,5.7,4c0.2,0.3,0.3,0.7,0,1c-0.3,0.3-0.7,0.3-1,0.1
		c-0.7-0.2-1-0.8-1.5-1.2c-2.5-1.9-6.7-1.4-8.8,1.4c1.4,0.2,2.8,0.2,4.1,0.6c1.3,0.4,2.6,0.7,3.8,1.3c-0.9,1.5-1.4,1.7-3.3,1.2
		c-2.3-0.7-4.7-1-7-0.6c-1.7,0.3-3.4,0.4-5.1,0.4c-0.6,0-1.3,0-1.9,0c-2.4,0-4.3-1-5.4-3.2c-0.1-0.2-0.3-0.5-0.5-0.8
		c-1,0.4-1.7,1.2-2.5,1.8c-1.4,1-2.8,1.7-4.6,1.4C165.8,221.9,157.6,220.7,149.5,218.5z M181,230.8c-0.1,0.5-0.6,0.5-0.9,0.6
		c-4.9,1.2-9.7,1.1-14.4-0.7c-2.4-0.9-4.8-1.1-7.3-0.5c-1.6,0.4-3.2,0.8-4.8,1.2c-0.4,0.1-0.7,0.2-1.1-0.1c0.5-1.6,1.8-2.7,3-3.8
		c0.5-0.5,1.2-0.3,1.9-0.3c3.3-0.1,6.4,0.6,9.6,1.1C171.7,229,176.3,229.9,181,230.8z M114.8,324.1c0.4-0.8,1.1-1.3,2-1.6
		c1.5-0.4,2.9-0.7,4.5-0.4c-0.4,2-1.1,3.6-3.3,4.3c-2,0.6-3.3,2.4-4.7,4C113.7,328.3,113.9,326.2,114.8,324.1z M116.6,360.5
		c-0.5,0.6-1.1,1.2-1.7,1.6c-2.5,1.8-5,1.3-6.6-1.3c-0.3-0.4-0.4-0.9-0.8-1.5c1.3,0.1,2.4,0.2,3.5,0.3c2.7,0.3,4.5-1,5.5-3.5
		c0.4-1,0.8-1.9,2.1-2.6C119.1,356.4,118.1,358.6,116.6,360.5z M133.6,329.2c1.2,0.8,2.2,1.5,3.2,2.2c0,0.9-0.7,1.3-1.3,1.7
		c-1.6,1.4-2.3,1.3-3.8-0.1c-2.8-2.6-6-4.1-10.2-3.4c1.4,1.2,3,1.7,4.1,3.2c-2.2,2.2-4.7,2.5-7.9,1.8c1.1,2.3,3,2.6,4.7,3.2
		c-1.6,2.1-4.7,2.1-6.1,0.1c-0.7-1.1-1.5-2.3-0.8-3.8c0.3-0.6,0.1-1.3-0.1-1.9c-0.3-1.2,0.7-1.6,1.5-2c0.8-0.4,1.5-0.2,1.9,0.9
		c0.8-1.2,1-2.5,1.5-3.6c1.3-3,3-5.7,5.4-7.9c0.9-0.8,1.8-1.4,2.9-1.9c0.8-0.4,1.3-0.5,1.6,0.6c0.5,1.6,1.5,2.9,2.8,4.6
		c-0.2-3.4,0.1-6.3,0.9-9.3c1.7,0.7,3,2,4.6,2.6c1.6,0.6,3.3,0.7,5.3,0.8C141.8,322.3,139.2,326.9,133.6,329.2z M156.7,296.1
		c-3.6,3.4-7.2,6.8-10.7,10.2c-0.8,0.8-1.5,1.2-2.6,0.8c-0.5-0.2-1.1,0-1.6-0.4c0-0.8,0.6-1,1-1.4c3.4-2.9,6.8-5.7,10.2-8.6
		c0.9-0.7,1.9-1.3,2.8-2c0.6-0.4,1.1-0.2,1.5,0.3C157.6,295.7,157,295.8,156.7,296.1z M136.2,294.6c0-7.5,2.1-14.3,3.9-21
		c0.6-0.2,0.8,0.1,1.1,0.3c0.3,0.2,0.5,0.6,1,0.4c-0.9-4.7-0.8-9.3,1.6-13.8c2.8,1.6,5.6,3.2,8.3,4.8c0.9,0.5,1.9,1,2.9,1.4
		c0.9,0.4,1.1,0.7,0.5,1.6c-1.6,2.2-2.2,4.6-2,7.6c-2.9-1.6-5.6-3.2-8.3-4.7c-0.1,0.1-0.3,0.2-0.4,0.3c1.1,4.2,3.9,7.4,6.4,11
		c-2.3,0.5-4.5,0-6.6,0.1c4.6,1.2,9.4,1.9,14.3,3.3C151.5,290.2,144,292.4,136.2,294.6z M158.3,262.1c-4.7-1.1-9-2.9-12.9-5.7
		c-1.3-0.9-1.3-1.1-0.6-2.2c0.7-1.2,0.9-1.2,2.1-0.3c3.6,2.5,7.6,3.9,11.8,4.9c3.9,0.9,7.7,0.3,11.5,0.2c0.7,0,1.4-0.1,2.1,0.2
		c3.8,1.7,7.9,2.5,12.2,3.2c-2.1,0.9-4.2,0.8-6.1,0.9C171.7,263.7,165,263.7,158.3,262.1z M180.3,293.6c0.7,1.5,0.8,2.7-0.7,3.9
		c-1.1,0.9-1.2,2.5-1.5,4.2c-1.4-1.6-1.8-3.4-1.9-5.2c-0.4-4.3,1.5-7.8,4.2-10.9c2.7-3.1,6-5.6,9.5-7.7c0.8-0.5,1.7-1,2.5-1.5
		c-2.1,0.3-4,1.5-5.9,2.3c-2.2,1-4.4,2.1-6.8,3c1-1.1,1.9-2.2,2.9-3.3c-3,0.3-5.3,2.2-8.2,3.6c6.6-7.8,13.8-13.9,24-16.6
		c-2,2.4-4.2,4-6.2,6.1c4.6,1.3,8.7,3,12.1,6.1c0.9,0.9,1.9,1.8,2.4,3c-0.1,0.1-0.2,0.3-0.2,0.3c-5.6,0.8-10.6,2.8-15,6.4
		c-1.8,1.5-2.9,3.7-4,5.8c-0.4,0.7-0.6,1-1.4,1c-1.9,0-3.9-0.2-5.5-1C180.3,293.4,180.2,293.5,180.3,293.6z M189.3,312.8
		c-1.6-2.3-3.2-4.6-5.2-6.6c-1-1.1-1.6-2.2-1.4-3.6c0.1-0.8,0-1.6,0-2.4c0-0.3-0.1-0.8,0.4-0.9c0.4-0.1,0.9-0.1,1.1,0.3
		c1.5,2.4,3.8,4,5.4,6.4c1.7,2.7,4.1,4.9,6,7.6c2.8,3.9,2.7,4.5-1.5,7.2C192.5,318.1,191.1,315.4,189.3,312.8z M200,347.1
		c0-0.2,0.1-0.4,0.1-0.7c0.9-0.2,1.4,0.5,2.1,0.8c0.6,0.3,1.2,0.7,1.9,1.1c0.6-0.5,0.2-1,0-1.4c-2-6.7-4.1-13.3-7-19.7
		c-0.9-2-0.9-2,0.9-3.2c1.9-1.4,4.1-2.3,6.3-3.2c2.6-1.1,5-0.6,7.4,0.7c1,0.5,1.2,1.2,0.9,2.3c-1.4,4.2-4.2,7.1-8.4,8.7
		c-0.6,0.2-1.2,0.4-2.2,0.7c1.8,1.1,3.4,1.8,4.8,3c4.6,4.1,5.8,9.4,5.3,15.2c-0.3,3.1-0.8,6.1-1.6,9.1c1.6-1.9,2.5-4.3,3.9-6.4
		c-0.3,1.7-0.6,3.4-0.9,5c-0.6,3-0.9,6-1.1,9c-0.5,7.1-0.1,14.2,0.3,21.3c0.2,4.2,0.3,8.5-0.2,12.7c-0.1,0.8-0.3,1.4-0.8,1.9
		c-1.8,2-3.7,3.8-6,5.7c-0.2-1.1-0.4-2.1-0.5-3c-0.2-2.6-0.4-5.2-0.5-7.7c-0.2-4.8-0.3-9.6-0.5-14.4c0-0.9-0.1-1.7,1.1-2
		c0.8-0.2,0.3-0.8,0.2-1.2c-1-2.4-1.8-4.8-2.5-7.3C200.5,365.2,199.6,356.2,200,347.1z M223,421.6c-3.4,2.6-6.7,5.2-9.4,8.5
		c-0.7,0.8-1.5,1-2.5,1.1c-1.6,0.1-3.2,0.3-4.7,0.3c-2.8,0.1-5.5,0.9-8.2,2.2c0.1-1.4,0.4-2.6,0.9-3.7c0.4-0.7,0.9-1.2,1.7-1.5
		c3.2-0.9,6.5-1.9,9.9-1.3c0.8,0.2,1.3-0.2,1.9-0.7c4.2-3.3,8.5-6.6,13.2-9.3c-0.7-0.5-1.2,0-1.6,0.2c-4,1.5-7.7,3.6-10.7,6.6
		c-0.8,0.8-1.6,1.1-2.6,1.2c-1.9,0.3-3.9,0.4-5.8,0.4c-0.5,0-1-0.1-1.5-0.2c-0.6-0.2-0.8-0.6-0.4-1.1c0.4-0.7,1-1,1.8-1
		c1.6,0,3.2-0.1,4.7,0.1c1.5,0.2,2.7-0.1,3.7-1.3c1.4-1.7,3-2.7,5.2-3.1c1.5-0.3,2.7-1.3,4-2c2.8-1.7,4.4-1.8,7.2-0.6
		C227.5,418.3,225.2,419.9,223,421.6z"/>
</g>
</svg>
