<svg id="Layer_1" data-name="Layer 1" xmlns="http://www.w3.org/2000/svg" viewBox="0 0 841.89 416.06"><defs><style>.cls-1{fill:#fff;}.cls-2{fill:#0d52a1;}.cls-3{fill:#cb121d;}</style></defs><title>logo bayan run 2025</title><path class="cls-1" d="M254.61,197.41c-2.53,14.88-6.77,27.53-13,38.69-11.16,20.13-25.49,33.39-43.82,40.47a22.76,22.76,0,0,1-.13-2.48c0-4.74.26-9.5-.17-14.22a71,71,0,0,0-3-16.66c-.92-2.72-2.67-5.05-4-7.59-.52-1-1-2-1.69-3.32,4,.63,6.84-1.85,10.12-2.86,2.17-.66,3.61-3.95,3.24-6.27a15.48,15.48,0,0,1-.13-3.85,9.83,9.83,0,0,0-2.08-7.27,2.43,2.43,0,0,1-.48-2.38c1.2-4.41-1.65-7.29-5.16-8.22a11.27,11.27,0,0,0-6,0c-.94.26-1.32,0-1.5-.88s-.53-1.79-.74-2.69a1.64,1.64,0,0,1,.1-1.46c1.69-2.22,1.68-5,2.36-7.52a15,15,0,0,0,.37-2.11,4.64,4.64,0,0,1,.91-2.1,17,17,0,0,0,3.08-6.77c.26-1.69,1-3.29,1-5.06,0-.63.65-1.07,1.05-1.57a23.8,23.8,0,0,0,5.2-13.85,2.47,2.47,0,0,0,0-.86c-.85-2.36.06-4.47.81-6.64a17,17,0,0,0,.53-7.47c-.28-2.67-2.14-4.5-3.83-6.33a114,114,0,0,0-9.76-9.4c-1.86-1.57-2-3.52-1.95-5.63a1,1,0,0,1,.69-1,8.2,8.2,0,0,0,1.24-.84,7.66,7.66,0,0,0,3.35-7.05,6.48,6.48,0,0,1,.73-3.68,10.85,10.85,0,0,0,1-4.81,6,6,0,0,1,.51-2.67,7.52,7.52,0,0,0,.17-5.87,3.64,3.64,0,0,1,.1-2.43c1.63-5.38,2.22-10.73-1.65-15.53-1.25-1.54-2.71-2.9-3.91-4.51-.82-1.12-2.28-1.44-3.49-2a26.78,26.78,0,0,0-11.58-3C165,67.58,158.39,70.51,154.39,78a9.71,9.71,0,0,1-2.46,2.9,13.91,13.91,0,0,0-5.33,12.67A26.67,26.67,0,0,0,150,103.68a49.69,49.69,0,0,1,2.39,6.43c.33.88.09,1.34-.94,1.66a40,40,0,0,0-9.29,3.87,13.31,13.31,0,0,0-2.63,1.84c-2.37,2.41-5.26,4.21-7.6,6.63a23.92,23.92,0,0,0-5.83,9.91,9.9,9.9,0,0,1-1.83,3.58,102.15,102.15,0,0,0-13.33,21,7.62,7.62,0,0,1-1.76,2.15c-2.79,2.78-5,5.9-5.75,9.88a14.34,14.34,0,0,0,2.19,11.09,6.59,6.59,0,0,0,3.56,2.61c4.41,1.45,8.9,2.66,13.55,4-.76,1.74-1.45,3.36-2.16,5a140.93,140.93,0,0,0-6.21,17.15c-.78,2.67-2.22,5.11-3.07,7.79a30.77,30.77,0,0,0-1.48,8.64,11.47,11.47,0,0,1-.86,4.17A81.47,81.47,0,0,0,103,256.74a79.86,79.86,0,0,0,.2,11.37c.09,1.11,0,2-1.37,2.16a7.09,7.09,0,0,0-3,1.68,8.21,8.21,0,0,1-4.31,1.65,11.6,11.6,0,0,0-6.7,2.61,3.05,3.05,0,0,0-.61-.46A70.27,70.27,0,0,1,73.71,266a72.41,72.41,0,0,1-16.13-22.27,100.59,100.59,0,0,1-9.21-35.14c0-.1,0-.2,0-.3s-.08-.44-.13-.66-.14-.71-.17-1c-.28-3.1-.47-6.38-.59-10.21,0,0,0,0,0,0a128.91,128.91,0,0,1,7.92-24.64C63,154.06,73.29,138,85,122.7a342.48,342.48,0,0,1,40.35-43.83A53.22,53.22,0,0,1,130.77,74a2.66,2.66,0,0,0,.23.24c-1.43,2.49-2.92,4.94-4.28,7.46-2.8,5.2-5.31,10.55-6,16.49-.86,6.9.06,13.47,4.36,19.24.2.27.45.52,1,1.14.17-2.19.14-4,.31-5.81a71.41,71.41,0,0,1,18.09-41.31c10.93-12.38,24.19-21.76,38.67-29.52a7,7,0,0,1,.74-.29c.61.45.1.82,0,1.16-.81,2.44-.39,4.84.21,7.22a58.92,58.92,0,0,0,6.52,15c5.24,9.2,11.57,17.64,18.11,25.94a355.26,355.26,0,0,0,25.71,28.72c2.31,2.36,4.62,4.75,6.84,7.2.34.58.68,1.17,1,1.76l.92,1.6a39.41,39.41,0,0,1,3.28,6.61,2.76,2.76,0,0,0,.37.89l0,.07a2.83,2.83,0,0,0,.31.74c.11.2.23.4.35.6a8.25,8.25,0,0,1,.46.82,93.46,93.46,0,0,1,7.92,29.71A105.69,105.69,0,0,1,254.61,197.41Z"/><path class="cls-1" d="M817.18,113.26c-.6,3.46-1.18,6.91-1.79,10.36q-3.57,20.24-7.15,40.49t-7.16,40.49c-.33,1.9-.69,3.81-1,5.72-.09.61-.36.89-1,.87h-1.3c-8.19,0-16.38,0-24.57.05a2.78,2.78,0,0,1-2.9-1.85q-12.48-24.81-25.05-49.58a4.82,4.82,0,0,0-1.26-2c-.44,2.36-.88,4.57-1.27,6.79q-3.94,22.49-7.87,45c-.18,1-.4,1.64-1.71,1.63-8.76-.07-17.53,0-26.29,0a4.55,4.55,0,0,1-.8-.15c.46-2.75.91-5.48,1.39-8.2q3.79-21.4,7.58-42.82c2.64-15,5.24-30,7.92-44.95.38-2.13-.11-2,2.41-2,8,0,16.09,0,24.14,0a2.94,2.94,0,0,1,3.11,1.9q12.44,24.84,25,49.61a6.17,6.17,0,0,0,1.48,2.33c.67-3.74,1.31-7.23,1.92-10.73q3.68-20.78,7.31-41.56c.17-1,.4-1.54,1.56-1.53,8.84,0,17.68,0,26.52,0A3.88,3.88,0,0,1,817.18,113.26Z"/><path class="cls-1" d="M306,211.2c.92-5.28,1.81-10.36,2.71-15.43q3.33-19,6.69-37.94T322,120.1c.33-1.9.79-3.8,1-5.72.13-1.17.69-1.44,1.69-1.35.29,0,.58,0,.86,0q26.63,0,53.23,0a45,45,0,0,1,11.33,1.14c8.25,2.15,13.72,7.13,15.15,15.72a24.33,24.33,0,0,1-3.41,16.55,26.38,26.38,0,0,1-12.95,11.22c-.47.2-.94.37-1.4.56s-.9.38-1.34.57c.19.72.81.6,1.24.75a31.49,31.49,0,0,1,6.1,2.66A16.45,16.45,0,0,1,402,176.54c.37,11.58-4.47,20.67-13.63,27.58-4.69,3.54-10.13,4.92-15.8,5.73a157.05,157.05,0,0,1-23.84,1.37c-13.43-.1-26.87,0-40.3,0Zm34.41-21.47a1,1,0,0,0,.9.34c5.75,0,11.49,0,17.24-.07a17,17,0,0,0,6.08-1.23,11.16,11.16,0,0,0,7.18-8.75c.9-4.64-1.18-7.81-5.77-9a20.58,20.58,0,0,0-5.11-.71c-5.24-.05-10.48,0-15.72-.07-1.16,0-1.49.47-1.65,1.43-.41,2.4-.85,4.8-1.26,7.21C341.62,182.5,341,186.17,340.37,189.73Zm19.05-56.66V133c-2.45,0-4.89,0-7.33,0-1.69,0-1.73,0-2,1.69q-1.4,7.63-2.71,15.26c-.26,1.52-.18,1.61,1.33,1.62,3.73,0,7.47,0,11.21,0a34.14,34.14,0,0,0,5.15-.38c5.8-.82,9.38-4.71,9.74-10.57a6.33,6.33,0,0,0-4.66-6.89,12.6,12.6,0,0,0-3.81-.66Z"/><path class="cls-1" d="M198.21,279.64c20.95-7.9,35.44-22.91,46.06-42.08,6.86-12.38,10.92-25.74,13.29-39.64a108.83,108.83,0,0,0,1.32-28.55,96.52,96.52,0,0,0-8.16-30.66c-.27-.59-.64-1.12-1-1.68a.81.81,0,0,0-.4-.91l0,0a50.66,50.66,0,0,0-4.51-9c-5.35-9.54-11.71-18.42-18.18-27.22-5.2-7-10.36-14.14-15.6-21.16-7.89-10.57-12.63-22.47-15.15-35.34a110.19,110.19,0,0,1-2.05-26.32c.71,4.23,1.09,8.15,1.88,12a110.2,110.2,0,0,0,24.49,50.17c7.75,9.09,16.25,17.47,24.56,26,7.86,8.09,15.49,16.39,22,25.64a105.41,105.41,0,0,1,19,48.76,139.71,139.71,0,0,1,.27,30.32,185.11,185.11,0,0,1-3.89,24.67,116,116,0,0,1-26.64,51c-15,16.92-33.21,29.29-53.76,38.42-.25.11-.53.17-1,.31a7.39,7.39,0,0,1-.11-2.33c0-1.94,0-3.88,0-5.82,0-2.17,0-2.19,2-2.76a88.59,88.59,0,0,0,20.93-8.95c12.73-7.38,23.3-17.19,32.49-28.6,14.16-17.56,22-37.69,24.67-60a128.82,128.82,0,0,0,.78-24.52,2.27,2.27,0,0,0-.41-1.5c0,3.48-.2,6.7-.48,9.91-1.66,19.31-6.3,37.81-15.49,55s-21.77,31.51-38.25,42.16a67,67,0,0,1-24.59,10c-1.71.3-1.81.32-2-1.54-.51-6.06-1.94-12-1.73-18.17a29.63,29.63,0,0,0-.52-5.12A10.07,10.07,0,0,1,198.21,279.64Zm32.11-19.58c.6-.31.81-.41,1-.53a74.75,74.75,0,0,0,9-6.63c14-11.76,24.9-25.86,31.35-43.06a108.9,108.9,0,0,0,6.54-48.25,58.7,58.7,0,0,0-5.15-19.44,16,16,0,0,0-2.3-3.88c.83,2,1.67,3.94,2.35,6a74.34,74.34,0,0,1,3.38,22.06,108.16,108.16,0,0,1-.81,15.26c-.93,8-2.12,15.94-4.6,23.63-3.87,12-10.33,22.54-18.16,32.3A153.65,153.65,0,0,1,230.32,260.06Z"/><path class="cls-1" d="M696.07,211.2H666.49a8.22,8.22,0,0,0-.86,0c-1,.11-1.37-.22-1.48-1.27-.33-3.29-.79-6.56-1.19-9.83-.16-1.29-.37-2.57-.44-3.86-.06-.94-.49-1.2-1.36-1.19-2.73,0-5.46,0-8.19,0-7.76,0-15.52,0-23.28,0a2.5,2.5,0,0,0-2.72,1.77c-2,4.39-4.08,8.7-6.1,13.07-.39.84-.77,1.37-1.87,1.36-9.63-.05-19.25,0-28.88,0a2.57,2.57,0,0,1-.58-.14,3.21,3.21,0,0,1,.75-1.79q26-47.13,52-94.29a3.25,3.25,0,0,1,3.32-2c9.49.1,19,0,28.46,0a9.53,9.53,0,0,0,1.07,0c1.1-.12,1.45.39,1.65,1.45.92,4.94,2,9.85,2.94,14.78q5.28,26.49,10.57,53C692.21,191.8,694.11,201.37,696.07,211.2Zm-36.5-37.54c-.24-5.18-4-32.71-4.7-34.29-1.88,3.1-16,32.72-16.33,34.29Z"/><path class="cls-1" d="M507.36,211.2H477.58c-2,0-1.95,0-2.18-2q-.72-6.19-1.46-12.4c-.21-1.74-.24-1.76-2-1.76-10.41,0-20.83,0-31.24,0a2.11,2.11,0,0,0-2.27,1.45c-2,4.51-4.19,9-6.28,13.46-.35.75-.67,1.29-1.7,1.28-9.84,0-19.67,0-29.47,0-.35-.65.11-1,.33-1.42q26.27-47.61,52.53-95.2a2.64,2.64,0,0,1,2.69-1.57c9.84,0,19.68,0,29.52,0,1.75,0,1.77,0,2.1,1.67q4.36,21.84,8.71,43.69L507,209.25C507.14,209.8,507.22,210.37,507.36,211.2Zm-40.83-72c-1.41,1.71-16.36,32.88-16.58,34.53h19.4c1.77,0,1.74,0,1.51-1.83q-1.46-11-2.89-22C467.5,146.4,467,142.88,466.53,139.21Z"/><path class="cls-1" d="M512.85,113.31A4,4,0,0,1,515,113c9.77,0,19.55,0,29.32-.05a2.73,2.73,0,0,1,3,2c4,9.61,8.05,19.19,12.09,28.78a7,7,0,0,0,1.13,2.2l4.93-6.33q9.7-12.52,19.37-25.07A3.59,3.59,0,0,1,588,113c9.78.06,19.55,0,29.32,0a3,3,0,0,1,1.69.16c.08.68-.49,1-.83,1.4q-22.53,26.67-45.1,53.32a9.89,9.89,0,0,0-2.34,4.92c-2,11.82-4.13,23.61-6.19,35.42-.51,2.93-.48,2.93-3.34,2.94H533.68c.58-3.47,1.12-6.76,1.7-10,1.76-10,3.52-19.93,5.34-29.88a4.31,4.31,0,0,0-.66-2.84q-12-24.24-23.93-48.47C515.05,117.79,514,115.6,512.85,113.31Z"/><path class="cls-1" d="M534.78,258.39c1.75-10,3.49-19.92,5.21-29.83.57-3.29.55-3.29,3.94-3.29,6,0,11.93,0,17.9,0a4,4,0,0,1,2.44.32c-.52,3.27-1,6.6-1.59,9.91q-4.66,28.39-9.34,56.77c-.55,3.31-.13,2.67-3.13,2.71-4.67.07-9.34,0-14,.13a4.08,4.08,0,0,1-3.65-1.67q-12.54-15.09-25.2-30.06a4.21,4.21,0,0,0-1.55-1.45c-.4,2.06-.79,4-1.15,5.95q-2.34,12.83-4.69,25.65c-.3,1.64-.33,1.66-1.85,1.67q-10.78,0-21.56.06a9.35,9.35,0,0,1-1.05-.11,6.7,6.7,0,0,1,.34-2.81q6.18-32.49,12.41-65c.4-2.11.42-2.11,2.59-2.11,4.6,0,9.2.06,13.8,0a4,4,0,0,1,3.45,1.63q12.59,15.19,25.28,30.29C533.72,257.58,534,258.15,534.78,258.39Z"/><path class="cls-1" d="M376.35,272.15l14.09,23.18a3,3,0,0,1-1.89.3c-8.48,0-17,0-25.44.12a2.77,2.77,0,0,1-2.84-1.69c-2.8-5.18-5.73-10.29-8.51-15.48a2.8,2.8,0,0,0-3-1.77c-2.36.16-4.74.06-7.11.06-1.4,0-1.83-.32-2.3,1.76-1.18,5.18-2.49,10.34-3.74,15.5-.41,1.67-.42,1.69-2.11,1.7l-21.13.11c-2,0-2,0-1.58-1.87Q315,277,319.24,260c.39-1.54.41-1.55,2.23-1.56q17.58-.12,35.14-.22a18.1,18.1,0,0,0,9.12-2.15,9.34,9.34,0,0,0,4-3.84,5.76,5.76,0,0,0-2.26-8,11.7,11.7,0,0,0-6-1.62c-1.65,0-3.31,0-5,0-10.28,0-20.55,0-30.83,0a5.56,5.56,0,0,1-3.73-1.23c-6.74-5.26-13.53-10.45-20.29-15.66.28-.75.87-.47,1.3-.47q32.13,0,64.25,0a39.45,39.45,0,0,1,17,3.52c5.63,2.64,9.67,6.71,10.93,13a23.06,23.06,0,0,1-1.83,14.51c-2.87,6.23-7.6,10.72-13.53,14C378.67,270.92,377.6,271.48,376.35,272.15Z"/><path class="cls-1" d="M482.65,225.43c-1.38,7.12-2.73,14-4.06,20.93-1,5-1.89,10-2.9,15-1.76,8.76-5.15,16.73-11.51,23.21A39.42,39.42,0,0,1,444,295.46c-9.67,2.13-19.38,2.37-29-.26-5.9-1.61-11-4.6-14.66-9.64-4.06-5.58-5.13-11.91-4.51-18.62.52-5.6,2.09-11,3.26-16.47,1.68-7.87,3.44-15.71,5.17-23.57.36-1.6.37-1.62,1.93-1.63q10.66,0,21.34,0a1.65,1.65,0,0,1,1.37.4c-.53,2.55-1.08,5.21-1.64,7.86-2,9.49-4,19-6,28.46a17.25,17.25,0,0,0-.32,6.83,9.36,9.36,0,0,0,7.54,7.88c10,2.18,19.82-2.61,22.37-13.93,1.7-7.56,3.09-15.19,4.62-22.79.9-4.44,1.81-8.87,2.67-13.31.19-1,.57-1.44,1.69-1.43,7.25,0,14.51,0,21.77,0A8.14,8.14,0,0,1,482.65,225.43Z"/><polygon class="cls-2" points="108.38 70.61 108.43 70.54 108.4 70.6 108.38 70.61"/><path class="cls-3" d="M202,376.7a3.23,3.23,0,0,1,2.14-.8l0,0a3,3,0,0,1-2.12,1.21A2.54,2.54,0,0,1,202,376.7Z"/><path class="cls-1" d="M116,172.45a.56.56,0,0,1-.33-.53l0,0c.28-.14.47,0,.64.21Z"/><path class="cls-1" d="M115.71,171.92l-.25-.21c.3-.15.28,0,.23.23Z"/><path class="cls-1" d="M133,170.63c-.18,0-.27,0-.24-.17a.22.22,0,0,1,.14,0,.61.61,0,0,1,.09.18Z"/><path class="cls-1" d="M121.81,242.09a1.46,1.46,0,0,1-.41,0c-.23,0-.24-.16,0-.2a1,1,0,0,1,.41,0S121.79,242.05,121.81,242.09Z"/><path class="cls-1" d="M110.08,281.47c.16,0,.23,0,.2.17s-.1,0-.12,0a.84.84,0,0,1,0-.17Z"/><path class="cls-3" d="M204.1,375.9a2.17,2.17,0,0,1,.3-.23s.09,0,.14,0l-.46.17Z"/><path class="cls-1" d="M191.11,216.1c0,.18,0,.38-.2.47a1.36,1.36,0,0,1-.13-.37,1.43,1.43,0,0,1,.13-.38Z"/><path class="cls-1" d="M191.19,219.37a.74.74,0,0,1-.91-.45C190.67,218.9,191,219,191.19,219.37Z"/><path class="cls-1" d="M192,220.24c-.33,0-.48-.13-.46-.46A.44.44,0,0,1,192,220.24Z"/><path class="cls-1" d="M190.31,217.65l.18-.36c.26.3,0,.33-.2.34Z"/><path class="cls-1" d="M191.61,219.81a.38.38,0,0,1-.46-.46A.46.46,0,0,1,191.61,219.81Z"/><path class="cls-1" d="M192.57,216.66c.17.08.45.18.26.39s-.35,0-.44-.21Z"/><path class="cls-1" d="M192.39,216.84a3.21,3.21,0,0,1-.28-.25c.19-.26.33-.12.46.07Z"/><path class="cls-1" d="M192.48,220.67c-.35,0-.48-.13-.46-.46A.47.47,0,0,1,192.48,220.67Z"/><path class="cls-1" d="M191.17,223.69c-.49-.13-.66-.42-.44-.9C191.13,223,191.42,223.2,191.17,223.69Z"/><path class="cls-1" d="M189.89,222c-.44.13-.7-.1-.9-.45A.72.72,0,0,1,189.89,222Z"/><path class="cls-1" d="M190.32,222.39c-.34,0-.48-.13-.46-.46A.49.49,0,0,1,190.32,222.39Z"/><path class="cls-1" d="M190.75,222.82c-.38.07-.49-.11-.46-.46A.49.49,0,0,1,190.75,222.82Z"/><path class="cls-1" d="M765.82,253.35a30.32,30.32,0,0,1,9.36-3.83,32.23,32.23,0,0,1,17.79,1c8.6,3.15,13.21,9.46,14.54,18.15a24.8,24.8,0,0,1-.55,11c-2.29,7.6-7.49,12.69-14.83,15.83a38.68,38.68,0,0,1-17,2.76,48.13,48.13,0,0,1-15.17-2.67c-9.31-3.49-14.6-10-15.68-19.62a4.24,4.24,0,0,1,0-.62c0-1.52,0-1.55,1.49-1.56,2.3,0,4.59,0,6.89,0,3,0,6,0,9,0,1,0,1.47.15,1.67,1.29,1,5.38,4.74,8.53,10.37,8.79a15.66,15.66,0,0,0,4.92-.34,9.85,9.85,0,0,0,7.58-7.47,12.27,12.27,0,0,0-.11-6.61,10.4,10.4,0,0,0-9.51-7.28c-4.57-.33-8.56.63-11.38,4.45a1.79,1.79,0,0,1-1.91.58c-4.62-.62-9.24-1.2-13.85-1.83-1.84-.25-2.45-1.57-1.52-3.24a10.86,10.86,0,0,1,1.16-1.49A24.29,24.29,0,0,0,754.14,240a17.88,17.88,0,0,0-2.84-6.94,5.62,5.62,0,0,1-1-4.12c.16-1.37-.19-3.08.66-4s2.58-.29,3.93-.29q22.29,0,44.58,0c.58,0,1.15,0,1.72,0,.81,0,1.17.27,1.17,1.09q0,7.83,0,15.66c0,.84-.44,1.09-1.21,1.06-.5,0-1,0-1.51,0H767.73c-.66,0-1.08.25-1.13,1C766.36,246.55,766.11,249.72,765.82,253.35Z"/><path class="cls-1" d="M612.81,279.39h5.92c4.88,0,9.76,0,14.64-.06a1.83,1.83,0,0,1,2.12,1.48,29.36,29.36,0,0,0,8.92,14,1.63,1.63,0,0,1,.72,1c.08.62,0,1.13-.81,1.15-.51,0-1,0-1.51,0H584.24c-.74,0-1-.37-1-1a39.13,39.13,0,0,1,.57-8.3,20.29,20.29,0,0,1,4.29-8.55,60.18,60.18,0,0,1,9.38-8.87c6.76-5.49,13.81-10.64,20.41-16.34a20.14,20.14,0,0,0,3.82-4.22c2.77-4.25.71-9.57-4.26-11.08a13.35,13.35,0,0,0-8.45.2,9.27,9.27,0,0,0-6.1,8.35c-.11,2.94-.11,2.94-3.17,2.94q-7.32,0-14.64,0c-1.43,0-1.49-.07-1.54-1.59-.4-10.93,5.71-19.58,16.6-22.94a48.31,48.31,0,0,1,28-.44,23.57,23.57,0,0,1,11.48,7c5.81,6.61,6.69,17.87,0,26.3-3.92,4.95-9,8.55-14.13,12.1-3.57,2.45-7.22,4.79-10.83,7.19A5.07,5.07,0,0,0,612.81,279.39Z"/><path class="cls-1" d="M719.79,279.13a6.08,6.08,0,0,0,2.33.2c5.81,0,11.63.05,17.44,0,1.25,0,1.77.39,2.05,1.54a24.06,24.06,0,0,0,9.26,13.68c.39.29.85.53,1,1a.94.94,0,0,1-.86,1.44c-.5,0-1,0-1.51,0q-28.42,0-56.84,0c-.8,0-1.94.44-2.34-.43-.5-1.11.83-1.46,1.45-2a30,30,0,0,0,8-12,40.74,40.74,0,0,0,2.35-8.87,4.75,4.75,0,0,1,2-3.29q9-7,17.85-14.11a42.92,42.92,0,0,0,5.59-5.19,8.27,8.27,0,0,0,2.15-4.47,7.33,7.33,0,0,0-3.82-7.38c-3.5-1.91-9.3-1.49-12.45.92a9.06,9.06,0,0,0-3.5,5.58,12.51,12.51,0,0,0-.21,2.29c0,2.24.17,2.07-2.29,2.07H692.76a8.22,8.22,0,0,0-.86,0c-1.09.12-1.52-.29-1.54-1.4-.24-11,5.3-19.29,15.81-22.85a48.93,48.93,0,0,1,27.34-1.17A25.68,25.68,0,0,1,745,230.57c7.57,6.82,7.8,18.82,2.64,26.28a45.71,45.71,0,0,1-11,10.74c-4.77,3.47-9.79,6.58-14.67,9.88A9.19,9.19,0,0,0,719.79,279.13Z"/><path class="cls-1" d="M699.44,255.19c-.17-1.68-.15-1.7-1.87-1.71-2.8,0-5.6,0-8.4,0-1.77,0-1.8,0-2-1.64-.91-6.69.08-13,3.94-18.79a1.4,1.4,0,0,0-.27-2.13,22.77,22.77,0,0,0-10-5.84,47.43,47.43,0,0,0-24.44-.36,22.64,22.64,0,0,0-11.12,6C644,232,644,232,644.81,233.51c3.58,6.36,3.89,13,1.63,19.79-1.64,4.87-5,8.76-8.73,12.23a3.31,3.31,0,0,0-1.18,3.09,48.84,48.84,0,0,0,2,10.44A29.33,29.33,0,0,0,644.29,290c4,4.51,9.24,6.69,15.12,7.67a50.66,50.66,0,0,0,17.11,0c5.1-.87,9.79-2.62,13.6-6.21,3.56-3.36,5.58-7.54,7-12,1.89-5.75,2.36-11.71,2.54-17.71A51.63,51.63,0,0,0,699.44,255.19ZM678.2,269.25a26.17,26.17,0,0,1-1.56,9.22c-1.47,3.79-4,5.56-8.1,5.7-4.56.16-7.44-1.44-9.15-5.2a20.51,20.51,0,0,1-1.76-8.12c-.1-3.33,0-6.67,0-10A68.1,68.1,0,0,1,658,247.3a17.56,17.56,0,0,1,1.7-5.36,7.68,7.68,0,0,1,5-4c6.08-1.61,10.94.88,12.37,6.41a39.23,39.23,0,0,1,1.23,9.5C678.34,259,678.29,264.1,678.2,269.25Z"/><path class="cls-1" d="M61.88,133.05c12.34-22.61,28.06-42.72,45.6-61.47a3.71,3.71,0,0,0-.78.5c-2.92,2.74-5.91,5.41-8.76,8.23a339.25,339.25,0,0,0-35.21,40.42c-11.31,15.39-21.11,31.64-28.19,49.45a131.47,131.47,0,0,0-8.47,31.31,156.62,156.62,0,0,0-.11,41c1.9,14.31,5.87,27.94,13,40.54,8.43,14.83,19.95,26.58,35.15,34.55a5.76,5.76,0,0,0,2.52,1c-.3-1.62-.64-3.14-.87-4.68a2.58,2.58,0,0,0-1.45-2,79,79,0,0,1-8.1-5.69c-14.37-11.32-24.86-25.36-30.48-42.9a130.51,130.51,0,0,1-5.4-25,105.94,105.94,0,0,1-1-17.34c.05.29.08.59.11.88a187,187,0,0,0,3,22.62c2.31,10.89,5.81,21.32,11.9,30.75,8.06,12.48,18.54,22.62,30.41,31.41.22.17.44.37.73.27s.42-.59.48-.93c.73-4.5,2.51-8.64,4.33-12.78a60.17,60.17,0,0,0,3.16-8.44c.59-2.18.81-4.54,2.26-6.43a74.1,74.1,0,0,1-14.1-10.15A75.07,75.07,0,0,1,54.86,245a103.33,103.33,0,0,1-9.48-36.18c-.12-.64-.28-1.27-.34-1.9-.37-4.08-.55-8.17-.65-12.27a93.62,93.62,0,0,1,2.17-22.45C49.63,158.37,55.1,145.44,61.88,133.05ZM55.23,254.87a144.92,144.92,0,0,0,13.88,13.38,76.37,76.37,0,0,1-11.61-9.36C49.21,251,42.4,242,37.88,231.38c-3.13-7.36-4.5-15.11-5.31-23a93.92,93.92,0,0,1,.34-23.63,61,61,0,0,1,6-19.44A16,16,0,0,1,41,162.11a69.76,69.76,0,0,0-5.73,16.57c-3.62,18.22-2.3,36,4.95,53.2C43.83,240.43,49.17,247.89,55.23,254.87Z"/><path class="cls-1" d="M213.15,372.59c-1.89-2.42-4.4-4-7.45-3.32a5.23,5.23,0,0,1-5-1.32c-.6-.51-1.26-1-1.87-1.46C197,365,195,363.63,194.63,361a1,1,0,0,0-.29-.57c-1.34-1.06-1.05-2.54-1-3.95A94.16,94.16,0,0,1,194.56,346c.81-6.13,1.22-12.29,1.53-18.46a160.76,160.76,0,0,0-.66-26.69c-.27-2.28-.8-4.52-.92-6.83-.24-4.66-.48-9.33-.87-14a68.44,68.44,0,0,1-.39-6.87,125.22,125.22,0,0,0-.8-17.85c-.68-5.6-1.84-11-5-15.86a46,46,0,0,1-2.43-4.55,12.91,12.91,0,0,1-1.23-8.78,1.08,1.08,0,0,1,1.08-1,4.36,4.36,0,0,1,4.25,1.49c1.05,1.23,1.86,1.5,2.73.72,1-.94,2.37-.93,3.51-1.5.73-.36,1.74-.2,2.15-1.14a3.59,3.59,0,0,0-.07-2.73,2.91,2.91,0,0,1-.06-1.87,5.42,5.42,0,0,0-2.27-6.38c-.68-.49-1.55-.74-2-1.47a9.73,9.73,0,0,0,1.11-1.34c.66-1.16,1.76-2.38,1-3.75s-2.33-1.54-3.82-1.53a6.78,6.78,0,0,0-1.28.13c-1.19.28-2.38.55-3.55.9-2.08.61-2.09.64-2.84-1.23a56.86,56.86,0,0,1-2.33-8.5,3.23,3.23,0,0,1,.82-2.8,4.25,4.25,0,0,0,1.23-2.23c.19-2.73,1.39-5.28,1.37-8a1.31,1.31,0,0,1,.71-1.37c.82-.46,3.06-4.47,3.16-5.36a2.29,2.29,0,0,0,0-.64,2.84,2.84,0,0,1,.34-1.86,1.82,1.82,0,0,0,.26-1.65c-.73-1.54.26-2.35,1.15-3.32,3.69-4,5.73-8.63,5-14.13a8.92,8.92,0,0,1,.6-4.95c1.84-4.43,1.88-8.51-2.18-12.11-3.37-3-6.54-6.26-9.87-9.32a4.34,4.34,0,0,1-1.45-1.82A18.72,18.72,0,0,1,181.2,121c.06-2.31.77-4.21,3.22-5.05,1.77-.61,2.24-2.1,2.24-3.79a8.37,8.37,0,0,0-.22-1.49,3.43,3.43,0,0,1,.77-3.15,4.59,4.59,0,0,0,.89-4.62,2.29,2.29,0,0,1,.53-2.83,3.23,3.23,0,0,0,.4-4c-.29-.58-.6-1.15-.89-1.72a3.78,3.78,0,0,1,.44-4.19c.16-.19.34-.3.51-.18.78.56.74,0,.79-.53s.18-1.28.26-1.92c.64-5.2-1-8.25-5.86-10.51-.16-.07-.26-.12-.23-.32,0-.41.82-.27.63-1-1.51-.68-3-1.46-4.65-2.06a23.78,23.78,0,0,0-4.14-1.16c-8.62-1.55-15.5,2.25-18.29,9.34a3.24,3.24,0,0,1-1.54,1.66,9.6,9.6,0,0,0-5,9.37,17,17,0,0,0,2.27,7.35,49.6,49.6,0,0,1,3.48,9,17.18,17.18,0,0,1,.78,4.22c.07,1-.2,1.62-1.3,1.78a19.53,19.53,0,0,0-2.72.64c-5.14,1.51-10.15,3.24-13.74,7.58a4.17,4.17,0,0,1-1,.76A20.72,20.72,0,0,0,130,136.57a8.55,8.55,0,0,1-1.66,3.19A94.46,94.46,0,0,0,114.88,161a6.56,6.56,0,0,1-1.66,2.2,18.85,18.85,0,0,0-4.7,6.11,9.68,9.68,0,0,0,.34,9.11,3.57,3.57,0,0,0,2.25,1.81,174,174,0,0,0,16.81,4.61c.47.1,1,0,1.34.53a3,3,0,0,1-.56,1.37,141.26,141.26,0,0,0-9.78,24.11,40.72,40.72,0,0,1-1.8,4.83,27.44,27.44,0,0,0-2.79,12.5,7.51,7.51,0,0,1-.66,3.31,75.26,75.26,0,0,0-6.23,31.68c.08,3.09.51,6.15.52,9.25,0,.9-.28,1.28-1.2,1.35-1.66.14-3.44.42-4.62,1.56-2.16,2.09-4.7,2.52-7.53,2.85A6.7,6.7,0,0,0,88.35,284a37.17,37.17,0,0,1-2.23,7.19c-1.21,2.92-2.48,5.81-3.71,8.72a26.22,26.22,0,0,0-2.1,13.46,20,20,0,0,0,2.88,8.49,12.23,12.23,0,0,0,1.75,2.17c2.83,2.75,6.24,2.8,8.93-.09a17.41,17.41,0,0,0,5-13.1,6.63,6.63,0,0,1,1-4,17.79,17.79,0,0,0,2.87-8c0-.42.22-.83.29-1.26a2.75,2.75,0,0,1,1.49-2c2.37-1.41,3.22-1.35,5.22.6a7.82,7.82,0,0,1,1,1.36,1.62,1.62,0,0,0,1.22.76,13.9,13.9,0,0,0,7-.45,12.91,12.91,0,0,0,7.54-7.55c2.57-6.08,5-12.21,7.3-18.42.24-.64.31-1.36,1.14-1.7,3.06-1.27,6.09-2.57,9.43-2.88,1.57-.15,1.6-.12,1.67-1.66A26.45,26.45,0,0,1,147.8,257c.84.36,1,1,1.37,1.53,1.38,2.2,2.87,4.31,4.44,6.36a22.38,22.38,0,0,0,5.19,5.44,20.72,20.72,0,0,1,6.14,7.09,129.55,129.55,0,0,1,8.88,19.12,11.38,11.38,0,0,1,.6,6.47,75.11,75.11,0,0,0-.33,22.75,38.79,38.79,0,0,0,2.61,11.07,22.42,22.42,0,0,1,1.53,8.17c0,.94.09,1.87.14,2.8a141.8,141.8,0,0,1-.13,21.32c-.07.69,0,1.41-.8,1.83-2.35,1.2-2.92,3.39-3.1,5.77a40.17,40.17,0,0,0,.28,5.8,11.55,11.55,0,0,1-1.21,6.67,8.17,8.17,0,0,0-.91,5.63,2.39,2.39,0,0,0,1.84,2.08,39.43,39.43,0,0,0,10.11,2c3.27.1,6.48-.31,9.17-2.44a3.05,3.05,0,0,1,2-.59,33.81,33.81,0,0,0,6.42-.61,18.22,18.22,0,0,0,10.29-5.44A13.6,13.6,0,0,0,213.15,372.59ZM181.44,207.25c.82,2.11,2.37,2.67,4,1.85a13.65,13.65,0,0,1,6.05-1.38c.63,0,1.46-.11,1.59.7a1.62,1.62,0,0,1-1.25,1.79,6,6,0,0,1-1.7.11,11,11,0,0,0-2.53.21c1.63.52,2.53,1.73,3.57,2.88.73.81,1.95,1.17,2.91,1.79,1.54,1,1.79,1.61,1.54,3.57-.78.2-1-.84-1.68-.78-.51.53,0,.89.25,1.28a10.7,10.7,0,0,1,1.68,3.7.74.74,0,0,1-.36.91c-.42.19-.68-.11-.91-.38a11,11,0,0,1-.95-1.54,3.2,3.2,0,0,0-1.22-1.31v0l0,0c-.24.92.6,1.39.87,2.1.2.51.72,1.08.23,1.57s-1-.06-1.45-.38c-.28-.21-.55-.46-.94-.27-.28.67.88,1.48,0,1.94-1,.55-1.15-.73-1.66-1.21a6.42,6.42,0,0,0-1.58-1.08c-.57-.28-1-.59-.6-1.32s.91-1,1.66-.45c-.15-1.59,0-2,1.29-2.59l0,0h0l0-1.26c-1.66.52-1.93,2.33-3.06,3.38-1.29,1.2-1.3,1.43-2.06.72a2,2,0,0,1-.18-3,9,9,0,0,1,1.37-.92c-1.52-.94-1.33-2.41-1.22-3.82.1-1.14.45-2.21-1.11-2.81-1.79-.69-2.35-.73-3.85.59a1.75,1.75,0,0,1-.35.2h0a8.75,8.75,0,0,1-.26-3.17,16,16,0,0,1,1.08-3.75C181.27,205.66,181.16,206.53,181.44,207.25ZM156.33,96.85a4.13,4.13,0,0,1,.48-1.2,2.91,2.91,0,0,1,3-1.61,2.5,2.5,0,0,1,2,2.5,19.56,19.56,0,0,0,.65,3.15,1.56,1.56,0,0,0,.76,1.25c.52,0,.44-.48.42-.79a5.17,5.17,0,0,1,2.05-4.72,5.54,5.54,0,0,0,.89-.92c.36-.47.55-1-.33-1s-.53-.64-.79-.94c-.6-.7.22-.74.52-.94.79-.51,1.08-1.42,1.83-2,1-.84.19-1.93-.89-2.9a10.66,10.66,0,0,0,5.44-2.59,1.8,1.8,0,0,1,1.53-.65l.17-.26c.15.11.15.18.1.22a1.12,1.12,0,0,1-.22.09h0c0,.28,0,.55-.05.82h0l.11.11a6.42,6.42,0,0,0,2.63-.85,5,5,0,0,1,2.87-.52h0l0,0,0,0,0,0a.32.32,0,0,1,0-.13c.07,0,.09,0,.08,0a.35.35,0,0,1-.12.09s0,0,0,0h0l-.48.65c.67.43,1.89-.47,1.82,0-.23,1.33.8.8,1.1.83a3.36,3.36,0,0,1,3.1,3.1c.46,3,.87,2.87-2.29,2.83-2,0-3.76-.91-5.69-1.12a5.12,5.12,0,0,0-4.59,1.86h2.67c.3.52-.11.48-.31.55a1.1,1.1,0,0,0-.77.67c.69.79,1.82.73,2.74,1.11.64.27,1.95-.22,1.72,1.31-.06.35.38.35.64.29a3.64,3.64,0,0,0,2.21-1.23,3.39,3.39,0,0,1,1.48-1.2c.74-.25,1.51-.28,1.78.62a36.36,36.36,0,0,0,1.79,3.91c.62,1.44.4,1.87-1.28,2.67,0,.7-.81.72-1.18,1.21a6.34,6.34,0,0,0,1.64,2.39,4.47,4.47,0,0,1-2.65.07c-1.16-.32-2,.24-2.92,1.29l3.64.3c.5,0,1.09,0,1,.74s-.53.81-1.08.85-1.37.07-2.12.11c.17.85.8,1.13,1.27,1.53a2.65,2.65,0,0,1-.73,4.72,6.44,6.44,0,0,1-3.38.37,61.51,61.51,0,0,1-7.93-1.93,3.55,3.55,0,0,0-2.51-.26c3.19,2.79,6.53,5.15,9,8.31-.15.62-.57.47-.89.48-1.19.05-1.63.77-1.66,1.83a17.61,17.61,0,0,0,.28,4.29,10.93,10.93,0,0,1,.12,3.71,3.82,3.82,0,0,1-2.43-1.31A22.25,22.25,0,0,1,168,123c-1.2-2-2.44-3.89-3.66-5.83a8.68,8.68,0,0,0-2.06-2.47c-2.52-1.84-2.4-4.67-3.12-7.25a20.62,20.62,0,0,0,2.76-.49,1.37,1.37,0,0,0,1.18-1.64,5,5,0,0,0-.09-.69c0-.12,0-.25-.06-.39a1.42,1.42,0,0,0,0-.2.6.6,0,0,0-.75,0,2.82,2.82,0,0,1-.41.23c-1.89.77-3,.54-4.11-1.08A8.41,8.41,0,0,1,156.33,96.85ZM130,142.44c.14,0,.12.08,0,.14A.46.46,0,0,1,130,142.44Zm-2.88,35.74a15.45,15.45,0,0,1-1.47-.56c6.64.08,12.77,1.33,18.9.15-3.41-.22-6.79-.62-10.17-1.05-6-.74-11.9-1.84-17.44-4.42a2.55,2.55,0,0,0-.62-.15h0c-.09.11-.19.21-.29.31,1.26,2.27,3.17,4,5.35,6-4.2-.47-7.44-1.81-9.64-5.13a3.54,3.54,0,0,1-.33-3.65,11.87,11.87,0,0,1,3.23-4.24,13.06,13.06,0,0,0,2.9-3.94c2.89-5.45,5.74-10.93,9.45-15.88.81-1.09,1.42-2.48,2.91-2.93,0,0,0,0,0,0l0,0h0a3.28,3.28,0,0,1-.06.63,5.47,5.47,0,0,1-.19.8,9.13,9.13,0,0,0-.39,1.45,2.59,2.59,0,0,0,.37,2.22,66.86,66.86,0,0,0,2.9-8.18A48.82,48.82,0,0,1,136,131a9.37,9.37,0,0,1,4.91-4.61,8,8,0,0,0,2.14-1.44,12,12,0,0,1,4.79-2.36,5.55,5.55,0,0,1,5.52,1.59c1,1,1.05,1.67.19,2.82-5.09,6.73-10.58,13.07-17.64,17.85-.23.15-.53.26-.52.77,2.48-.19,4.78-1.15,7.56-1.64a28.29,28.29,0,0,1-9.1,11.91,42.63,42.63,0,0,1-13.22,6.57,58.11,58.11,0,0,1,17.11,8.89c-1.86.06-3.26-.58-4.73-.68.26,1.22,1.35,1.55,2.26,2a20,20,0,0,0,7.67,1.86,57.63,57.63,0,0,0,14.12-.77,12.7,12.7,0,0,0,5-1.93,10.76,10.76,0,0,1,3.73-1.56,20.13,20.13,0,0,0,9.11-4.57c1.08-1,2.3-.76,2.8.38a1,1,0,0,1-.45,1.39,2.63,2.63,0,0,0-.64.6c1.48,0,3-.09,4.46-.08,2.44,0,5.54,2.78,5.8,5.16,0,.3,0,.62-.22.79s-.67.07-.95-.19-.3-.31-.44-.47c-1-1.15-2-2.43-3.59-2.51-2.38-.12-4.84-.65-7.13.58-.05,0-.07.11-.09.17,1.71,0,3.42,0,5.13,0,3.37-.06,5.07,2.29,6.77,4.64a.72.72,0,0,1-.1,1,.88.88,0,0,1-1,.23,4.61,4.61,0,0,1-1.85-1.45,3.92,3.92,0,0,0-3.22-1.42c-1.22,0-2.44-.1-3.66-.09a4.88,4.88,0,0,0-3.28,1c2.22,0,4.14,0,6.07,0,2.83,0,4.36,1.87,5.66,4a.7.7,0,0,1-.07,1,.85.85,0,0,1-1,.09c-.61-.38-1.15-.86-1.73-1.27a6.51,6.51,0,0,0-8.58,1.52,22.34,22.34,0,0,1,5.92,1.11,12,12,0,0,1,1.42.5c.63.3.58.77.11,1.18a2.81,2.81,0,0,1-2.86.29,17.16,17.16,0,0,0-6.6-.69,25.79,25.79,0,0,1-3.19.46c-.93,0-1.86,0-2.8,0-3.23.12-6-.55-7.37-4.22-1,.75-1.76,1.35-2.55,1.94a6,6,0,0,1-4.82,1.34C142.87,181.33,135,180,127.13,178.18Zm31.55,12.08a22.82,22.82,0,0,1-15.49,0,13.22,13.22,0,0,0-8.82-.4c-1.48.47-3,.75-4.61,1.13a5.15,5.15,0,0,1,4.94-4.38c4,0,7.83.87,11.71,1.5S154.3,189.47,158.68,190.26ZM91.83,283.55a3,3,0,0,1,1.93-1.6,11.54,11.54,0,0,1,4.58-.43c-.42,2.17-1.21,3.58-3.28,4.31a10.08,10.08,0,0,0-4.66,4A26.26,26.26,0,0,1,91.83,283.55Zm4,31.44a10.07,10.07,0,0,1-3,5.8c-2.79,2.71-6.75,2.35-8-2.14,1.23-.17,2.23.33,3.3.37a5.16,5.16,0,0,0,5.44-3.3c.8-1.79.87-1.75,2.09-2.54A2,2,0,0,1,95.81,315Zm15-26.43a11.26,11.26,0,0,0,2.55,1.73c.64.41.72.84.14,1.36a12.57,12.57,0,0,1-1.29,1.13c-1.38,1-1.94.94-3.18-.21a15,15,0,0,0-4.63-3.07,11.2,11.2,0,0,0-5.72-.62c1.23,1.34,3,1.7,3.95,3-1.58,2-2.42,2.27-7.6,2.26.92,2,2.85,2.27,4.6,2.84-1.35,2-4.53,2.19-5.8.48-.9-1.21-1.78-2.46-1-4.14a2.12,2.12,0,0,0,0-1.47c-.51-1.29.23-1.86,1.17-2.38s1.73-.43,2.21,1A50.69,50.69,0,0,1,99,283.85a17.11,17.11,0,0,1,6.3-6.64c1.44-.84,1.56-.76,2.38.77a9.17,9.17,0,0,0,2.39,3.44,45.45,45.45,0,0,1,.84-7.63c.07-.27.15-.53.27-1,1.63.77,2.87,2,4.46,2.61a19.44,19.44,0,0,0,5.39.92C118.91,281.68,116.21,286.19,110.81,288.56Zm23-33.17c-3.67,3.5-7.37,7-11,10.51a2,2,0,0,1-2.08.68c-.61-.16-1.24-.28-2.22-.5a28.86,28.86,0,0,1,4.07-3.59c2.52-2.22,5.1-4.37,7.7-6.51.82-.68,1.77-1.2,2.65-1.81a.91.91,0,0,1,1.32.25C134.73,254.94,134.11,255.13,133.84,255.39Zm-6.17-6.1a120.25,120.25,0,0,1-13.08,4.26c-1.22.34-1.36.25-1.39-1a41,41,0,0,1,1.27-9.35,97.6,97.6,0,0,1,2.66-10.29c.93-.16,1.12.8,1.92.85-.15-1.32-.3-2.63-.43-3.93a18.61,18.61,0,0,1,1.5-8.81c.47-1.19.55-1.2,1.68-.51a96.67,96.67,0,0,0,9.93,5.58c.94.43,1.18.94.59,1.81a11.41,11.41,0,0,0-1.94,7.45l-8.64-4.85c.23,2.51,1.46,4.25,2.57,6s2.4,3.55,3.82,5.61H123c4.11,1.34,8.33,1.9,12.69,3.3A47.65,47.65,0,0,1,127.67,249.29Zm7.63-27.8a36.44,36.44,0,0,1-12.9-5.73,1.78,1.78,0,0,1,.21-3.06c.5-.26.81.11,1.13.36a26.42,26.42,0,0,0,7.22,3.76,29.09,29.09,0,0,0,13.48,1.76c1.07-.11,2.15-.13,3.21-.3a3.7,3.7,0,0,1,2.09.34,46.93,46.93,0,0,0,12,3.1,21.26,21.26,0,0,1-6.55.95C148.53,223.1,141.86,223.1,135.3,221.49ZM152,241.19s-.15-.06-.15-.06c.08-.23.25-.22.43-.2A3.45,3.45,0,0,1,152,241.19ZM156.57,257c-1,1-1.15,2.43-1.39,4.24a10.74,10.74,0,0,1-1.92-5.4,12.74,12.74,0,0,1,1.94-7.8,27.48,27.48,0,0,1,7.16-7.65c1-.79,2.07-1.51,3.14-2.2s2.11-1.35,3.17-2c-1.59,0-2.91.86-4.28,1.49-1.93.88-3.81,1.88-5.71,2.82-.49.24-1,.6-1.56.4v0l0,0,0,0h0c.07.15,0,.33-.1.28-.33-.2-.08-.21.07-.26l0,0v0h0a4.29,4.29,0,0,1,1-1.27,4.57,4.57,0,0,0,1.28-1.64l-.27-.27a12.18,12.18,0,0,0-4.21,1.79,6.9,6.9,0,0,1-2,1,.54.54,0,0,1-.46.36.45.45,0,0,1,.31-.51h0a6.35,6.35,0,0,1,1.93-2.5l.32-.32c5.36-5.68,11.56-10.08,19.11-12.38.26-.08.54-.12,1.34-.3a27.65,27.65,0,0,1-3,3.07c-.92.89-1.87,1.75-3.1,2.91,5.84,1.81,11.1,4.07,14.54,9.08-.18.22-.25.41-.34.42a28.34,28.34,0,0,0-15,6.41,15.7,15.7,0,0,0-4,5.81,1.31,1.31,0,0,1-1.39.95,17,17,0,0,1-5.42-.87c-.13.21-.28.37-.25.44C158.29,254.68,157.74,255.87,156.57,257Zm9.91,15.34a54.14,54.14,0,0,0-5.43-6.91,4.37,4.37,0,0,1-1.31-3.46c0-.78,0-1.57,0-2.36,0-.35,0-.75.42-.89a.92.92,0,0,1,1.15.29c1.38,2.28,3.61,3.81,5.08,6.05,1.85,2.79,4.33,5.12,6.27,7.88,2.79,4,2.78,4.48-1.48,7.23C169.55,277.53,168.17,274.87,166.48,272.38ZM177,305.76c1.58,0,2.52,1.44,3.89,1.63.56-.48.25-1,.12-1.42a147.54,147.54,0,0,0-6.91-19.46c-.82-1.82-.8-1.8.74-2.93a36.86,36.86,0,0,1,6.47-3.38c2.66-1.2,5.16-.55,7.61.77a1.51,1.51,0,0,1,.78,2.12,13.27,13.27,0,0,1-8.33,8.7c-.65.24-1.33.41-2.14.66a7.32,7.32,0,0,0,2.26,1.35A15.26,15.26,0,0,1,189,305c.72,4.37-.14,8.57-1,12.78a2.38,2.38,0,0,0-.09,1.6c1.5-2,2.21-4.17,3.33-6.17.48.31.29.68.21.95a71.34,71.34,0,0,0-2.08,15.26,192.18,192.18,0,0,0,.36,19.35,65.89,65.89,0,0,1-.21,12.48,2.74,2.74,0,0,1-.51,1.6,39.56,39.56,0,0,1-6.26,6c-.85-3-.74-5.83-.92-8.65-.36-5.44-.4-10.9-.57-16.36,0-.88-.08-1.69,1.09-2,.94-.26.3-.94.12-1.38a74.74,74.74,0,0,1-3.56-11.51A85.21,85.21,0,0,1,177,305.76Zm13.24,63.58-3.43.45C188.06,367.73,188.64,367.63,190.26,369.34Zm15.4,7.43a122.5,122.5,0,0,0-11.53,9,17.49,17.49,0,0,0-3,3.07,3.88,3.88,0,0,1-3.28,1.7c-2.36.14-4.73.33-7.08.59a18.4,18.4,0,0,0-5.42,1.84,8.36,8.36,0,0,1,1.07-4,2.4,2.4,0,0,1,1.69-1.19c3.25-.93,6.49-1.93,9.93-1.2.76.15,1.22-.29,1.72-.69A149.07,149.07,0,0,1,202,377.09a2.54,2.54,0,0,1,0-.39c-2.11.33-3.86,1.5-5.68,2.47A20,20,0,0,0,191.1,383a5.62,5.62,0,0,1-3.55,1.74,32.14,32.14,0,0,1-5.8.23,1.83,1.83,0,0,1-1.58-.6,1.88,1.88,0,0,1,2.13-1.63c1.58,0,3.17-.05,4.74.1a3.68,3.68,0,0,0,3.33-1.11,9.58,9.58,0,0,1,5.74-3.44,10.76,10.76,0,0,0,3.45-1.73,8.1,8.1,0,0,1,4.83-1.58,2.85,2.85,0,0,1,2.17.71C206.61,376.34,206.05,376.5,205.66,376.77Z"/></svg>